<svg width="608" height="155" viewBox="0 0 608 155" fill="none" xmlns="http://www.w3.org/2000/svg">
<path d="M23.3437 46.9527C24.6315 46.9546 25.9192 46.9565 27.246 46.9585C27.9104 46.9647 28.5747 46.9709 29.2592 46.9773C31.3044 46.9957 33.3492 46.9978 35.3945 46.9976C45.4065 47.0429 45.4065 47.0429 46.5468 48.1831C46.6946 50.9085 46.7818 53.6118 46.8281 56.3394C46.8557 57.5656 46.8557 57.5656 46.8838 58.8166C46.9628 62.3291 47.0304 65.8418 47.0991 69.3545C47.1507 71.9121 47.208 74.4695 47.2656 77.0269C47.2791 77.8279 47.2927 78.6289 47.3067 79.4543C47.0485 83.1214 47.0485 83.1214 48.5468 86.1831C49.8772 86.2815 51.2127 86.3139 52.5468 86.3159C53.3512 86.3172 54.1556 86.3185 54.9843 86.3199C56.2527 86.3141 56.2527 86.3141 57.5468 86.3081C58.3924 86.312 59.2381 86.3159 60.1093 86.3199C60.9137 86.3186 61.7181 86.3173 62.5468 86.3159C63.6606 86.3143 63.6606 86.3143 64.7968 86.3125C66.5751 86.3726 66.5751 86.3726 67.5468 85.1831C67.6822 82.5422 67.7574 79.9236 67.7929 77.2808C67.8258 75.6525 67.859 74.0243 67.8925 72.396C67.94 69.8174 67.9844 67.2387 68.0236 64.6599C68.0632 62.1791 68.1148 59.6988 68.1679 57.2183C68.1763 56.4443 68.1847 55.6703 68.1934 54.8728C68.3201 49.4098 68.3201 49.4098 70.5468 47.1831C74.8811 46.6918 79.2504 46.8127 83.6093 46.8081C84.8126 46.7836 86.016 46.7592 87.2558 46.7339C96.0842 46.705 102.538 47.8718 109.422 53.5581C115.007 60.4572 115.334 66.5055 114.547 75.1831C112.836 80.7185 109.093 83.8204 104.547 87.1831C101.064 88.9246 97.3549 88.6319 93.5468 88.1831C89.7944 86.863 87.1416 84.9122 84.6093 81.8081C83.3761 78.7614 83.3195 76.4409 83.5468 73.1831C84.8668 72.8531 86.1868 72.5231 87.5468 72.1831C87.9451 73.032 87.9451 73.032 88.3515 73.898C88.7047 74.6315 89.0579 75.3649 89.4218 76.1206C89.7699 76.8515 90.1179 77.5824 90.4765 78.3355C91.4153 80.3465 91.4153 80.3465 93.5468 81.1831C96.6062 81.6039 99.4928 81.6631 102.547 81.1831C105.829 78.6535 107.239 77.1058 108.547 73.1831C109.318 66.6563 108.465 62.4782 104.547 57.1831C96.9457 52.0394 96.9457 52.0394 74.5468 54.1831C74.5468 78.9331 74.5468 103.683 74.5468 129.183C94.4459 130.628 94.4459 130.628 103.547 126.183C108.127 121.483 108.909 117.717 108.836 111.214C108.357 107.853 106.678 105.741 104.547 103.183C100.796 100.683 98.9882 100.647 94.5468 101.183C91.298 103.782 89.1194 106.323 87.5468 110.183C86.2268 110.183 84.9068 110.183 83.5468 110.183C82.9494 104.209 82.9494 104.209 84.5546 101.453C87.2418 98.1942 89.7079 95.4054 94.0351 94.8824C99.5912 94.8593 103.852 94.8622 108.547 98.1831C114.138 104.241 115.005 108.799 114.859 116.918C114.284 122.928 112.089 127.053 107.609 131.058C102.489 134.611 98.758 135.435 92.5312 135.414C91.8747 135.413 91.2183 135.413 90.542 135.412C89.1637 135.409 87.7854 135.401 86.4072 135.389C84.2895 135.371 82.1723 135.368 80.0546 135.369C69.6944 135.331 69.6944 135.331 68.5468 134.183C68.3864 131.082 68.2872 128.001 68.2304 124.898C68.1992 123.502 68.1992 123.502 68.1674 122.077C68.1018 119.092 68.043 116.106 67.9843 113.121C67.9411 111.102 67.8975 109.083 67.8534 107.064C67.7461 102.104 67.6449 97.1435 67.5468 92.1831C64.401 92.1543 61.2552 92.1364 58.1093 92.1206C57.2115 92.1123 56.3136 92.1039 55.3886 92.0952C54.5346 92.092 53.6806 92.0888 52.8007 92.0855C51.6146 92.0776 51.6146 92.0776 50.4045 92.0696C48.5309 91.9782 48.5309 91.9782 47.5468 93.1831C47.3988 96.1995 47.3117 99.1959 47.2656 102.214C47.2471 103.121 47.2287 104.027 47.2098 104.961C47.1508 107.868 47.0981 110.776 47.0468 113.683C46.9794 117.506 46.9057 121.329 46.8281 125.152C46.8145 126.04 46.8009 126.929 46.7869 127.844C46.6596 134.07 46.6596 134.07 45.5468 135.183C41.3996 135.451 37.2485 135.455 33.0934 135.478C31.0167 135.495 28.9415 135.539 26.8652 135.584C18.1432 135.686 11.7467 135.27 5.2343 128.933C1.15947 122.293 -0.54695 116.001 0.546805 108.183C2.07673 102.965 4.81225 98.9713 9.4179 96.0269C14.631 93.9608 20.351 94.2955 25.4843 96.3706C29.9306 100.278 31.9904 103.201 32.5468 109.183C30.0718 109.678 30.0718 109.678 27.5468 110.183C24.5468 104.433 24.5468 104.433 24.5468 102.183C20.817 100.99 17.4386 100.773 13.5468 101.183C10.6496 103.496 10.6496 103.496 8.5468 106.183C8.0518 106.678 8.0518 106.678 7.5468 107.183C6.76012 116.736 6.76012 116.736 10.5468 125.183C16.6974 129.748 21.928 129.706 29.4218 129.496C30.4788 129.486 31.5359 129.476 32.6249 129.466C37.4345 129.835 37.4345 129.835 41.5468 128.183C41.6412 125.883 41.6642 123.579 41.6603 121.277C41.6605 120.555 41.6606 119.833 41.6608 119.089C41.6601 116.692 41.6523 114.295 41.6445 111.898C41.6426 110.24 41.6412 108.583 41.6402 106.925C41.6363 102.554 41.6265 98.1822 41.6155 93.8109C41.6053 89.3536 41.6007 84.8963 41.5956 80.439C41.5849 71.687 41.5678 62.9351 41.5468 54.1831C37.5053 54.0957 33.464 54.0426 29.4218 53.9956C28.2797 53.9705 27.1376 53.9454 25.9609 53.9195C17.8139 53.7797 17.8139 53.7797 10.5468 57.1831C6.79022 61.8391 6.9809 66.2954 7.14446 72.0659C7.51703 74.9525 7.84818 76.6292 9.4843 78.9956C13.0823 81.5656 15.1309 81.9492 19.4648 81.6402C22.5431 80.9644 23.7534 79.7352 25.5468 77.1831C26.5903 75.5434 27.6029 73.8822 28.5468 72.1831C29.8668 72.5131 31.1868 72.8431 32.5468 73.1831C32.1767 79.3517 30.7891 81.9409 26.5468 86.1831C22.9918 88.88 18.8316 88.6886 14.5468 88.1831C7.96847 86.1762 4.94236 83.1253 1.43352 77.3511C-0.627475 72.3121 -0.238284 66.0132 1.19915 60.8316C3.77497 55.1051 8.09975 50.8531 13.7394 48.1209C17.0796 47.0052 19.824 46.9404 23.3437 46.9527Z" fill="black"/>
<path d="M23.3437 46.9533C24.6315 46.9552 25.9192 46.9572 27.246 46.9592C27.9104 46.9654 28.5747 46.9716 29.2592 46.978C31.3044 46.9963 33.3492 46.9985 35.3945 46.9982C45.4065 47.0435 45.4065 47.0435 46.5468 48.1838C46.6946 50.9091 46.7818 53.6124 46.8281 56.34C46.8557 57.5662 46.8557 57.5662 46.8838 58.8172C46.9628 62.3297 47.0304 65.8424 47.0991 69.3552C47.1507 71.9127 47.208 74.4701 47.2656 77.0275C47.2791 77.8286 47.2927 78.6296 47.3067 79.4549C47.0485 83.1221 47.0485 83.1221 48.5468 86.1838C50.3549 86.3927 52.169 86.5516 53.9843 86.6838C59.327 87.0739 59.327 87.0739 61.5468 88.1838C61.5468 88.8438 61.5468 89.5038 61.5468 90.1838C60.1566 90.3829 60.1566 90.3829 58.7382 90.5861C57.5407 90.7627 56.3431 90.9393 55.1093 91.1213C53.9143 91.2953 52.7194 91.4693 51.4882 91.6486C48.6672 91.8736 48.6672 91.8736 47.5468 93.1838C47.3988 96.2002 47.3117 99.1966 47.2656 102.215C47.2471 103.121 47.2287 104.028 47.2098 104.961C47.1508 107.869 47.0981 110.776 47.0468 113.684C46.9794 117.507 46.9057 121.33 46.8281 125.153C46.8145 126.041 46.8009 126.93 46.7869 127.845C46.6596 134.071 46.6596 134.071 45.5468 135.184C41.3996 135.452 37.2485 135.455 33.0934 135.479C31.0167 135.496 28.9415 135.54 26.8652 135.584C18.1432 135.687 11.7467 135.27 5.2343 128.934C1.15947 122.293 -0.54695 116.002 0.546805 108.184C2.07673 102.966 4.81225 98.972 9.4179 96.0275C14.631 93.9614 20.351 94.2961 25.4843 96.3713C29.9306 100.279 31.9904 103.202 32.5468 109.184C30.0718 109.679 30.0718 109.679 27.5468 110.184C24.5468 104.434 24.5468 104.434 24.5468 102.184C20.817 100.99 17.4386 100.774 13.5468 101.184C10.6496 103.497 10.6496 103.497 8.5468 106.184C8.0518 106.679 8.0518 106.679 7.5468 107.184C6.76012 116.737 6.76012 116.737 10.5468 125.184C16.6974 129.749 21.928 129.707 29.4218 129.496C30.4788 129.487 31.5359 129.477 32.6249 129.467C37.4345 129.835 37.4345 129.835 41.5468 128.184C41.6412 125.883 41.6642 123.58 41.6603 121.277C41.6605 120.555 41.6606 119.833 41.6608 119.09C41.6601 116.693 41.6523 114.296 41.6445 111.899C41.6426 110.241 41.6412 108.583 41.6402 106.926C41.6363 102.554 41.6265 98.1829 41.6155 93.8115C41.6053 89.3542 41.6007 84.8969 41.5956 80.4396C41.5849 71.6877 41.5678 62.9357 41.5468 54.1838C37.5053 54.0963 33.464 54.0432 29.4218 53.9963C28.2797 53.9711 27.1376 53.946 25.9609 53.9201C17.8139 53.7803 17.8139 53.7803 10.5468 57.1838C6.79022 61.8397 6.9809 66.296 7.14446 72.0666C7.51703 74.9531 7.84818 76.6298 9.4843 78.9963C13.0823 81.5663 15.1309 81.9499 19.4648 81.6408C22.5431 80.9651 23.7534 79.7359 25.5468 77.1838C26.5903 75.544 27.6029 73.8828 28.5468 72.1838C29.8668 72.5138 31.1868 72.8438 32.5468 73.1838C32.1767 79.3524 30.7891 81.9415 26.5468 86.1838C22.9918 88.8807 18.8316 88.6893 14.5468 88.1838C7.96847 86.1768 4.94236 83.1259 1.43352 77.3517C-0.627475 72.3127 -0.238284 66.0139 1.19915 60.8322C3.77497 55.1057 8.09975 50.8538 13.7394 48.1215C17.0796 47.0058 19.824 46.9411 23.3437 46.9533Z" fill="black"/>
<path d="M17.6088 36.0221C18.56 36.0171 19.5112 36.0121 20.4912 36.007C23.653 35.9924 26.8147 35.9856 29.9765 35.9801C32.1651 35.9743 34.3536 35.9686 36.5422 35.9628C41.1373 35.9523 45.7324 35.9464 50.3276 35.943C56.2249 35.9375 62.1221 35.9134 68.0194 35.885C72.542 35.8664 77.0646 35.8612 81.5873 35.8596C83.7619 35.8566 85.9364 35.8485 88.111 35.8354C91.1495 35.8184 94.1875 35.8202 97.226 35.8268C98.13 35.8175 99.034 35.8083 99.9655 35.7988C100.793 35.8044 101.62 35.81 102.472 35.8157C103.191 35.8142 103.91 35.8128 104.65 35.8113C107.113 36.2943 108.024 37.2246 109.547 39.1832C109.547 39.8432 109.547 40.5032 109.547 41.1832C108.235 41.1925 106.923 41.2019 105.571 41.2115C100.703 41.2514 95.8355 41.3171 90.9677 41.3907C88.861 41.4189 86.7542 41.4401 84.6474 41.4542C81.6185 41.4756 78.5909 41.5222 75.5624 41.5738C74.6206 41.5751 73.6788 41.5763 72.7085 41.5775C68.8873 41.6631 66.2964 41.7464 62.9589 43.691C60.9317 47.2688 60.9437 50.6602 60.9374 54.6676C60.9209 55.4832 60.9044 56.2988 60.8873 57.1391C60.8388 59.7372 60.8175 62.3347 60.7968 64.9332C60.7687 66.6975 60.7387 68.4619 60.707 70.2262C60.6331 74.5451 60.5835 78.8638 60.5468 83.1832C58.5668 83.1832 56.5868 83.1832 54.5468 83.1832C54.5375 82.0833 54.5281 80.9834 54.5185 79.8502C54.4786 75.7647 54.4128 71.6799 54.3393 67.5948C54.3111 65.8277 54.2899 64.0604 54.2758 62.2931C54.2544 59.7506 54.2077 57.2096 54.1562 54.6676C54.155 53.8789 54.1537 53.0902 54.1525 52.2776C54.0647 48.9831 53.7689 46.5713 52.121 43.691C48.1246 41.3502 44.3045 41.5799 39.7499 41.5738C38.3268 41.549 38.3268 41.549 36.8749 41.5237C33.8488 41.4752 30.8232 41.4539 27.7968 41.4332C25.7434 41.405 23.69 41.3751 21.6367 41.3434C16.6068 41.2694 11.5771 41.2199 6.54681 41.1832C8.02849 34.6215 11.5346 36.0295 17.6088 36.0221Z" fill="black"/>
<path d="M69.5468 48.1836C70.5368 48.5136 71.5268 48.8436 72.5468 49.1836C71.8868 49.8436 71.2268 50.5036 70.5468 51.1836C70.1544 54.2342 70.1544 54.2342 70.0976 57.8906C70.0754 58.5877 70.0533 59.2847 70.0305 60.0029C69.9616 62.3338 69.9095 64.6647 69.8593 66.9961C69.8289 68.1939 69.8289 68.1939 69.7978 69.4159C69.2696 90.6778 69.9011 111.931 70.5468 133.184C71.8668 133.514 73.1868 133.844 74.5468 134.184C74.5468 133.194 74.5468 132.204 74.5468 131.184C79.685 129.945 84.875 129.884 90.1328 129.754C96.3715 129.487 101.407 128.38 105.922 123.746C108.802 119.205 109.307 114.527 108.547 109.184C106.532 105.431 105.092 103.547 101.547 101.184C98.1314 100.6 98.1314 100.6 94.5468 101.184C91.298 103.783 89.1194 106.324 87.5468 110.184C86.2268 110.184 84.9068 110.184 83.5468 110.184C82.9494 104.209 82.9494 104.209 84.5546 101.453C87.2418 98.1947 89.7079 95.4059 94.0351 94.8828C99.5912 94.8598 103.852 94.8627 108.547 98.1836C114.138 104.241 115.005 108.799 114.859 116.918C114.284 122.928 112.089 127.054 107.609 131.059C102.489 134.611 98.758 135.435 92.5312 135.414C91.8748 135.414 91.2183 135.413 90.542 135.413C89.1637 135.41 87.7854 135.402 86.4072 135.389C84.2895 135.371 82.1723 135.369 80.0546 135.369C69.6944 135.331 69.6944 135.331 68.5468 134.184C68.3864 131.083 68.2872 128.002 68.2304 124.898C68.2096 123.968 68.1888 123.037 68.1674 122.078C68.1018 119.092 68.043 116.107 67.9843 113.121C67.9411 111.102 67.8975 109.083 67.8535 107.064C67.7461 102.104 67.6449 97.144 67.5468 92.1836C64.5768 91.8536 61.6068 91.5236 58.5468 91.1836C60.0318 90.6886 60.0318 90.6886 61.5468 90.1836C61.5468 89.5236 61.5468 88.8636 61.5468 88.1836C60.8868 87.8536 60.2268 87.5236 59.5468 87.1836C60.6812 87.0392 61.8156 86.8948 62.9843 86.7461C66.3546 86.5719 66.3546 86.5719 67.5468 85.1836C67.6945 82.531 67.7818 79.901 67.8281 77.2461C67.8465 76.4508 67.8649 75.6556 67.8839 74.8362C67.9428 72.2854 67.9955 69.7345 68.0468 67.1836C68.1143 63.8293 68.1879 60.4752 68.2656 57.1211C68.2791 56.3419 68.2927 55.5628 68.3067 54.76C68.434 49.2964 68.434 49.2964 69.5468 48.1836Z" fill="black"/>
<path d="M63.019 36.0228C63.9702 36.0132 64.9215 36.0036 65.9015 35.9937C66.9369 35.9894 67.9723 35.9852 69.039 35.9808C70.6243 35.9722 70.6243 35.9722 72.2417 35.9635C74.4829 35.954 76.7241 35.9475 78.9653 35.9437C82.4003 35.934 85.8346 35.903 89.2695 35.8714C91.4426 35.8649 93.6158 35.8596 95.789 35.8558C96.8203 35.8434 97.8516 35.8311 98.9142 35.8184C99.8718 35.8214 100.829 35.8244 101.816 35.8275C102.659 35.8238 103.502 35.8202 104.371 35.8164C107.037 36.2667 107.939 37.0442 109.547 39.1839C109.547 39.8439 109.547 40.5039 109.547 41.1839C107.579 41.1979 107.579 41.1979 105.571 41.2122C100.703 41.2521 95.8355 41.3178 90.9677 41.3914C88.861 41.4196 86.7542 41.4408 84.6474 41.4549C81.6185 41.4763 78.5909 41.5229 75.5624 41.5745C74.6206 41.5758 73.6788 41.577 72.7085 41.5782C68.8786 41.664 66.2972 41.7428 62.9589 43.7054C60.9578 47.2176 60.9438 50.5106 60.9374 54.4495C60.9209 55.2429 60.9044 56.0363 60.8873 56.8538C60.8389 59.3806 60.8175 61.9067 60.7968 64.4339C60.7687 66.1501 60.7387 67.8662 60.707 69.5823C60.6331 73.7828 60.5835 77.9829 60.5468 82.1839C58.8968 82.1839 57.2468 82.1839 55.5468 82.1839C56.5368 81.6889 56.5368 81.6889 57.5468 81.1839C57.5446 80.6349 57.5424 80.0859 57.5401 79.5202C57.518 73.8268 57.5029 68.1334 57.4919 62.44C57.4868 60.3127 57.48 58.1854 57.4714 56.0582C57.4593 53.0076 57.4536 49.9571 57.4492 46.9066C57.444 45.9493 57.4388 44.992 57.4335 44.0057C57.4334 43.1249 57.4334 42.244 57.4333 41.3365C57.4311 40.5571 57.4288 39.7776 57.4266 38.9746C57.6692 35.3617 59.9308 36.0478 63.019 36.0228Z" fill="black"/>
<path d="M27.4057 27.0228C28.1228 27.0178 28.8399 27.0128 29.5787 27.0077C31.9613 26.9931 34.3439 26.9863 36.7265 26.9808C38.377 26.975 40.0275 26.9693 41.6779 26.9635C45.1432 26.953 48.6084 26.9471 52.0737 26.9437C56.5183 26.9382 60.9625 26.9142 65.407 26.8857C68.8179 26.8671 72.2287 26.8619 75.6397 26.8603C77.2783 26.8573 78.917 26.8493 80.5557 26.8361C82.8471 26.8191 85.1377 26.821 87.4291 26.8275C89.3865 26.822 89.3865 26.822 91.3835 26.8164C94.5468 27.1839 94.5468 27.1839 96.4917 28.5812C97.5468 30.1839 97.5468 30.1839 97.5468 32.1839C71.1468 32.1839 44.7468 32.1839 17.5468 32.1839C20.4714 26.3347 21.0028 27.0563 27.4057 27.0228Z" fill="black"/>
<path d="M25.4843 96.3711C29.9307 100.278 31.9904 103.202 32.5468 109.184C30.8968 109.514 29.2468 109.844 27.5468 110.184C24.5468 104.434 24.5468 104.434 24.5468 102.184C20.817 100.99 17.4386 100.774 13.5468 101.184C10.6496 103.496 10.6496 103.496 8.54684 106.184C8.21684 106.514 7.88684 106.844 7.54684 107.184C7.02216 113.671 6.65874 119.687 10.5468 125.184C11.4131 126.05 12.2793 126.916 13.1718 127.809C15.4585 130.095 16.1986 131.05 16.5468 134.184C12.1945 133.873 9.20015 132.875 5.93746 129.887C1.45796 124.401 -0.171298 117.541 0.16793 110.57C1.04312 105.057 3.36762 100.824 7.60934 97.1836C12.9876 93.7452 19.7179 94.04 25.4843 96.3711Z" fill="black"/>
<path d="M10.5468 50.1836C11.9229 52.9358 11.3667 54.2458 10.5468 57.1836C10.0467 57.9312 9.54651 58.6789 9.03119 59.4492C6.34487 64.3977 6.84099 69.7151 7.54682 75.1836C8.76963 78.4799 9.53298 79.0309 12.5468 81.1836C15.7015 81.8853 18.3911 81.8763 21.5468 81.1836C24.867 78.8245 26.5834 75.7177 28.5468 72.1836C29.8668 72.5136 31.1868 72.8436 32.5468 73.1836C32.1767 79.3522 30.7891 81.9413 26.5468 86.1836C22.9918 88.8805 18.8316 88.6891 14.5468 88.1836C7.96848 86.1766 4.94237 83.1258 1.43354 77.3516C-0.630463 72.3052 -0.256686 65.973 1.23432 60.7969C3.41054 56.0364 6.347 53.238 10.5468 50.1836Z" fill="black"/>
<path d="M54.5468 95.1836C56.5268 95.1836 58.5068 95.1836 60.5468 95.1836C60.5468 108.714 60.5468 122.244 60.5468 136.184C58.5668 136.184 56.5868 136.184 54.5468 136.184C54.5468 122.654 54.5468 109.124 54.5468 95.1836Z" fill="black"/>
<path d="M58.5468 37.184C58.5276 37.7308 58.5084 38.2776 58.4887 38.841C58.2924 44.5178 58.1174 50.1951 57.9548 55.873C57.8912 57.9936 57.8222 60.114 57.7477 62.2343C57.6418 65.2772 57.5552 68.3201 57.4726 71.3637C57.4352 72.3158 57.3979 73.2679 57.3594 74.2489C57.3391 75.1297 57.3189 76.0104 57.298 76.9179C57.2736 77.6951 57.2492 78.4723 57.224 79.2731C57.3838 80.219 57.3838 80.219 57.5468 81.184C58.5368 81.844 59.5268 82.504 60.5468 83.184C58.5668 83.184 56.5868 83.184 54.5468 83.184C54.5328 81.5342 54.5328 81.5342 54.5185 79.851C54.4786 75.7655 54.4128 71.6807 54.3393 67.5956C54.3111 65.8285 54.2899 64.0612 54.2758 62.2939C54.2544 59.7514 54.2077 57.2104 54.1562 54.6684C54.155 53.8797 54.1537 53.091 54.1525 52.2784C54.0539 48.5754 53.8689 46.5839 51.5087 43.6537C50.8613 43.1687 50.2139 42.6837 49.5468 42.184C50.3593 39.7465 50.3593 39.7465 51.5468 37.184C54.6803 36.1395 55.5365 36.2498 58.5468 37.184Z" fill="black"/>
<path d="M75.5468 36.1833C79.9067 36.1092 84.2663 36.0547 88.6266 36.0186C90.1098 36.0035 91.5929 35.983 93.0759 35.957C95.2082 35.9206 97.34 35.9036 99.4726 35.8904C101.397 35.8668 101.397 35.8668 103.361 35.8428C106.547 36.1833 106.547 36.1833 108.489 37.5767C109.547 39.1833 109.547 39.1833 109.547 41.1833C95.6868 41.1833 81.8268 41.1833 67.5468 41.1833C67.5468 40.8533 67.5468 40.5233 67.5468 40.1833C72.9918 39.6883 72.9918 39.6883 78.5468 39.1833C78.5468 38.5233 78.5468 37.8633 78.5468 37.1833C77.5568 36.8533 76.5668 36.5233 75.5468 36.1833Z" fill="black"/>
<path d="M55.5468 27.1836C68.4168 27.1836 81.2868 27.1836 94.5468 27.1836C95.2068 28.5036 95.8668 29.8236 96.5468 31.1836C83.0168 31.1836 69.4868 31.1836 55.5468 31.1836C55.5468 29.8636 55.5468 28.5436 55.5468 27.1836Z" fill="black"/>
<path d="M35.7543 18.8164C37.041 18.8219 37.041 18.8219 38.3537 18.8275C39.8152 18.823 39.8152 18.823 41.3062 18.8184C42.3563 18.8307 43.4063 18.8431 44.4882 18.8558C45.5668 18.8576 46.6455 18.8595 47.7568 18.8615C50.0373 18.8682 52.3179 18.8821 54.5983 18.9026C58.0988 18.9338 61.5989 18.9436 65.0995 18.9495C67.3124 18.9587 69.5253 18.9691 71.7382 18.9808C72.7903 18.985 73.8424 18.9893 74.9263 18.9937C75.8975 19.0033 76.8687 19.0129 77.8693 19.0228C78.7263 19.0296 79.5833 19.0364 80.4663 19.0435C82.5468 19.1839 82.5468 19.1839 84.5468 20.1839C84.5468 20.8439 84.5468 21.5039 84.5468 22.1839C66.7268 22.1839 48.9068 22.1839 30.5468 22.1839C33.5468 19.1839 33.5468 19.1839 35.7543 18.8164Z" fill="black"/>
<path d="M69.5468 48.1836C70.5368 48.5136 71.5268 48.8436 72.5468 49.1836C71.8868 49.8436 71.2268 50.5036 70.5468 51.1836C70.1544 54.2342 70.1544 54.2342 70.0976 57.8906C70.0754 58.5877 70.0533 59.2847 70.0305 60.0029C69.9616 62.3338 69.9095 64.6647 69.8593 66.9961C69.8289 68.1939 69.8289 68.1939 69.7978 69.4159C69.2696 90.6778 69.9011 111.931 70.5468 133.184C73.5168 133.514 76.4868 133.844 79.5468 134.184C79.5468 134.514 79.5468 134.844 79.5468 135.184C77.9011 135.21 76.2552 135.23 74.6093 135.246C73.6928 135.258 72.7763 135.269 71.832 135.281C69.5468 135.184 69.5468 135.184 68.5468 134.184C68.3864 131.083 68.2872 128.002 68.2304 124.898C68.2096 123.968 68.1888 123.037 68.1674 122.078C68.1018 119.092 68.043 116.107 67.9843 113.121C67.9411 111.102 67.8975 109.083 67.8535 107.064C67.7461 102.104 67.6449 97.144 67.5468 92.1836C64.5768 91.8536 61.6068 91.5236 58.5468 91.1836C60.0318 90.6886 60.0318 90.6886 61.5468 90.1836C61.5468 89.5236 61.5468 88.8636 61.5468 88.1836C60.8868 87.8536 60.2268 87.5236 59.5468 87.1836C60.6812 87.0392 61.8156 86.8948 62.9843 86.7461C66.3546 86.5719 66.3546 86.5719 67.5468 85.1836C67.6945 82.531 67.7818 79.901 67.8281 77.2461C67.8465 76.4508 67.8649 75.6556 67.8839 74.8362C67.9428 72.2854 67.9955 69.7345 68.0468 67.1836C68.1143 63.8293 68.1879 60.4752 68.2656 57.1211C68.2791 56.3419 68.2927 55.5628 68.3067 54.76C68.434 49.2964 68.434 49.2964 69.5468 48.1836Z" fill="black"/>
<path d="M0.546781 108.184C0.876781 108.184 1.20678 108.184 1.54678 108.184C1.54678 111.154 1.54678 114.124 1.54678 117.184C2.86678 116.854 4.18678 116.524 5.54678 116.184C5.54678 114.204 5.54678 112.224 5.54678 110.184C5.87678 110.184 6.20678 110.184 6.54678 110.184C6.63315 110.992 6.71952 111.8 6.8085 112.633C7.67859 119.25 8.31904 122.721 13.5468 127.184C14.7775 129.471 15.6369 131.741 16.5468 134.184C12.1944 133.873 9.20009 132.875 5.93741 129.887C0.737099 123.518 -0.0607107 116.115 0.546781 108.184Z" fill="black"/>
<path d="M10.5468 50.1836C11.9229 52.9358 11.3667 54.2458 10.5468 57.1836C10.0518 57.9055 9.55683 58.6273 9.04683 59.3711C6.8593 63.4727 6.8051 67.5971 6.54683 72.1836C5.55683 72.5136 4.56683 72.8436 3.54683 73.1836C3.21683 73.8436 2.88683 74.5036 2.54683 75.1836C1.88683 75.1836 1.22683 75.1836 0.546826 75.1836C0.0985958 67.7131 -0.147384 61.343 4.54683 55.1836C6.45612 53.279 8.35426 51.7782 10.5468 50.1836Z" fill="black"/>
<path d="M84.5468 72.1836C86.4218 72.1836 86.4218 72.1836 88.5468 73.1836C88.9387 74.318 89.3306 75.4523 89.7343 76.6211C91.1103 80.2803 91.1103 80.2803 93.7343 81.0898C96.0068 81.5727 98.2365 81.9463 100.547 82.1836C99.8868 83.8336 99.2268 85.4836 98.5468 87.1836C99.8668 87.5136 101.187 87.8436 102.547 88.1836C95.9326 88.7235 91.9412 88.1754 86.5468 84.1836C83.5781 80.5445 83.1245 77.8295 83.5468 73.1836C83.8768 72.8536 84.2068 72.5236 84.5468 72.1836Z" fill="black"/>
<path d="M70.5468 47.1833C75.005 47.0966 79.463 47.043 83.9218 46.9958C85.1928 46.9707 86.4638 46.9456 87.7734 46.9197C88.9851 46.91 90.1968 46.9003 91.4453 46.8904C92.5659 46.8747 93.6866 46.859 94.8412 46.8428C95.7341 46.9552 96.6269 47.0676 97.5468 47.1833C98.2068 48.1733 98.8668 49.1633 99.5468 50.1833C97.8505 52.2874 96.997 53.1158 94.2785 53.5239C93.4144 53.5082 92.5504 53.4925 91.6601 53.4763C90.7223 53.4667 89.7845 53.457 88.8183 53.447C87.8418 53.4219 86.8654 53.3967 85.8593 53.3708C84.8712 53.3573 83.8832 53.3438 82.8652 53.3298C80.4252 53.2945 77.9863 53.2451 75.5468 53.1833C75.5468 52.8533 75.5468 52.5233 75.5468 52.1833C76.3512 52.0596 77.1556 51.9358 77.9843 51.8083C78.8299 51.6021 79.6756 51.3958 80.5468 51.1833C80.8768 50.5233 81.2068 49.8633 81.5468 49.1833C77.9168 48.8533 74.2868 48.5233 70.5468 48.1833C70.5468 47.8533 70.5468 47.5233 70.5468 47.1833Z" fill="black"/>
<path d="M98.5468 130.183C98.2168 131.503 97.8868 132.823 97.5468 134.183C98.2068 134.513 98.8668 134.843 99.5468 135.183C96.3177 135.212 93.0886 135.23 89.8593 135.246C88.4913 135.258 88.4913 135.258 87.0956 135.271C86.2094 135.274 85.3232 135.278 84.4101 135.281C83.5984 135.286 82.7867 135.291 81.9504 135.297C79.3982 135.176 77.0366 134.743 74.5468 134.183C74.5468 133.193 74.5468 132.203 74.5468 131.183C79.0892 130.113 83.5918 129.826 88.2343 129.558C89.0058 129.507 89.7773 129.455 90.5722 129.402C96.3036 129.062 96.3036 129.062 98.5468 130.183Z" fill="black"/>
<path d="M28.5468 72.1836C29.8668 72.5136 31.1868 72.8436 32.5468 73.1836C32.1767 79.3522 30.7891 81.9413 26.5468 86.1836C23.4669 88.2369 22.4484 88.1836 18.5468 88.1836C18.8768 86.5336 19.2068 84.8836 19.5468 83.1836C18.2268 82.8536 16.9068 82.5236 15.5468 82.1836C16.7637 82.0186 17.9806 81.8536 19.2343 81.6836C22.0632 81.0103 23.2759 80.4989 25.1913 78.2695C26.4127 76.2774 27.5295 74.2866 28.5468 72.1836Z" fill="black"/>
<path d="M91.5468 95.1836C95.2343 96.0586 95.2343 96.0586 98.5468 97.1836C98.2168 97.8436 97.8868 98.5036 97.5468 99.1836C96.5568 99.1836 95.5668 99.1836 94.5468 99.1836C94.5468 99.8436 94.5468 100.504 94.5468 101.184C92.8802 102.85 91.2135 104.517 89.5468 106.184C88.2516 108.35 88.2516 108.35 87.5468 110.184C86.2268 110.184 84.9068 110.184 83.5468 110.184C82.9494 104.209 82.9494 104.209 84.5546 101.453C86.6694 98.8888 88.7799 97.0282 91.5468 95.1836Z" fill="black"/>
<path d="M23.8593 95.746C27.4417 97.6622 29.2418 99.854 31.5468 103.184C32.3593 106.559 32.3593 106.559 32.5468 109.184C30.8968 109.514 29.2468 109.844 27.5468 110.184C24.5468 104.434 24.5468 104.434 24.5468 102.184C23.2268 101.854 21.9068 101.524 20.5468 101.184C20.2168 99.5335 19.8868 97.8835 19.5468 96.1835C21.5468 95.1835 21.5468 95.1835 23.8593 95.746Z" fill="black"/>
<path d="M110.547 119.184C110.877 119.184 111.207 119.184 111.547 119.184C112.373 126.03 112.373 126.03 110.234 129.016C106.198 132.719 102.98 133.962 97.5468 134.184C97.6718 131.934 97.6718 131.934 98.5468 129.184C101.297 127.184 101.297 127.184 104.547 125.184C106.251 123.555 107.927 121.896 109.547 120.184C109.877 119.854 110.207 119.524 110.547 119.184Z" fill="black"/>
<path d="M68.9843 36.0586C70.7149 36.0547 70.7149 36.0547 72.4804 36.0508C75.5468 36.1836 75.5468 36.1836 78.5468 37.1836C78.8768 38.1736 79.2068 39.1636 79.5468 40.1836C78.7618 40.2094 77.9767 40.2351 77.1679 40.2617C70.4896 40.6222 66.0402 41.3132 60.5468 45.1836C60.5468 42.5436 60.5468 39.9036 60.5468 37.1836C63.3844 35.7648 65.8236 36.0515 68.9843 36.0586Z" fill="black"/>
<path d="M110.547 102.184C113.264 104.782 114.472 106.146 114.75 110.012C114.904 121.287 114.904 121.287 111.547 126.184C110.547 124.184 110.547 124.184 110.547 120.184C109.887 120.514 109.227 120.844 108.547 121.184C108.877 117.224 109.207 113.264 109.547 109.184C109.877 109.184 110.207 109.184 110.547 109.184C110.547 106.874 110.547 104.564 110.547 102.184Z" fill="black"/>
<path d="M19.6718 48.1207C20.7675 48.1298 21.8632 48.1388 22.9921 48.1481C23.8352 48.1597 24.6782 48.1713 25.5468 48.1832C25.2168 49.5032 24.8868 50.8232 24.5468 52.1832C22.7773 52.688 21.0062 53.1869 19.2343 53.6832C17.7551 54.1009 17.7551 54.1009 16.246 54.527C13.5468 55.1832 13.5468 55.1832 10.5468 55.1832C10.9218 52.2457 10.9218 52.2457 11.5468 49.1832C14.3113 47.801 16.593 48.088 19.6718 48.1207Z" fill="black"/>
<path d="M35.8151 18.8428C36.6792 18.8585 37.5433 18.8742 38.4335 18.8904C39.8402 18.9049 39.8402 18.9049 41.2753 18.9197C42.2518 18.9448 43.2283 18.97 44.2343 18.9958C45.2224 19.0094 46.2104 19.0229 47.2285 19.0369C49.6685 19.0722 52.1074 19.1216 54.5468 19.1833C54.8768 20.1733 55.2068 21.1633 55.5468 22.1833C47.2968 22.1833 39.0468 22.1833 30.5468 22.1833C33.5468 19.1833 33.5468 19.1833 35.8151 18.8428Z" fill="black"/>
<path d="M8.54681 36.184C21.2165 35.6305 21.2165 35.6305 26.5468 39.184C26.5468 39.514 26.5468 39.844 26.5468 40.184C19.9468 40.184 13.3468 40.184 6.54681 40.184C7.20681 38.864 7.86681 37.544 8.54681 36.184Z" fill="black"/>
<path d="M95.5468 48.1836C101.54 48.5969 104.797 49.5026 109.547 53.1836C108.557 54.5036 107.567 55.8236 106.547 57.1836C103.213 55.8503 99.8801 54.5169 96.5468 53.1836C97.2068 52.8536 97.8668 52.5236 98.5468 52.1836C98.5468 51.5236 98.5468 50.8636 98.5468 50.1836C97.5568 49.5236 96.5668 48.8636 95.5468 48.1836Z" fill="black"/>
<path d="M93.5468 36.1836C97.8368 36.1836 102.127 36.1836 106.547 36.1836C107.207 37.5036 107.867 38.8236 108.547 40.1836C102.607 40.1836 96.6668 40.1836 90.5468 40.1836C91.5368 39.5236 92.5268 38.8636 93.5468 38.1836C93.5468 37.5236 93.5468 36.8636 93.5468 36.1836Z" fill="black"/>
<path d="M55.5468 27.1836C60.1668 27.1836 64.7868 27.1836 69.5468 27.1836C69.8768 28.5036 70.2068 29.8236 70.5468 31.1836C65.5968 31.1836 60.6468 31.1836 55.5468 31.1836C55.5468 29.8636 55.5468 28.5436 55.5468 27.1836Z" fill="black"/>
<path d="M14.5468 128.184C20.4868 129.174 20.4868 129.174 26.5468 130.184C25.5568 130.679 25.5568 130.679 24.5468 131.184C24.5468 132.174 24.5468 133.164 24.5468 134.184C25.8668 134.514 27.1868 134.844 28.5468 135.184C24.2568 135.184 19.9668 135.184 15.5468 135.184C15.2168 132.874 14.8868 130.564 14.5468 128.184Z" fill="black"/>
<path d="M16.6718 95.1215C17.5819 95.1305 18.492 95.1395 19.4296 95.1488C20.1283 95.1604 20.827 95.172 21.5468 95.184C20.5568 95.679 20.5568 95.679 19.5468 96.184C19.8768 97.504 20.2068 98.824 20.5468 100.184C16.9168 100.514 13.2868 100.844 9.54681 101.184C9.54681 99.534 9.54681 97.884 9.54681 96.184C12.0716 94.9216 13.8588 95.0854 16.6718 95.1215Z" fill="black"/>
<path d="M93.5468 95.1836C94.9842 95.1565 96.4218 95.1371 97.8593 95.1211C99.0601 95.1037 99.0601 95.1037 100.285 95.0859C102.547 95.1836 102.547 95.1836 105.547 96.1836C105.547 98.4936 105.547 100.804 105.547 103.184C105.031 102.874 104.516 102.565 103.984 102.246C100.88 100.893 97.8957 100.57 94.5468 100.184C95.5368 99.1936 96.5268 98.2036 97.5468 97.1836C96.2268 96.5236 94.9068 95.8636 93.5468 95.1836Z" fill="black"/>
<path d="M87.8593 130.121C88.5999 130.126 89.3404 130.13 90.1035 130.135C91.9179 130.147 93.7324 130.165 95.5468 130.184C95.5468 130.514 95.5468 130.844 95.5468 131.184C90.5968 131.184 85.6468 131.184 80.5468 131.184C80.5468 132.174 80.5468 133.164 80.5468 134.184C84.8368 134.184 89.1268 134.184 93.5468 134.184C93.5468 134.514 93.5468 134.844 93.5468 135.184C91.3177 135.211 89.0885 135.23 86.8593 135.246C85.6179 135.258 84.3766 135.27 83.0976 135.282C80.0845 135.199 77.4641 134.892 74.5468 134.184C74.5468 133.194 74.5468 132.204 74.5468 131.184C78.9847 130.072 83.3164 130.069 87.8593 130.121Z" fill="black"/>
<path d="M10.5468 80.1836C13.5168 81.1736 16.4868 82.1636 19.5468 83.1836C19.2168 84.8336 18.8868 86.4836 18.5468 88.1836C15.9068 87.8536 13.2668 87.5236 10.5468 87.1836C9.42181 82.4336 9.42181 82.4336 10.5468 80.1836Z" fill="black"/>
<path d="M20.5468 27.1836C24.1768 27.1836 27.8068 27.1836 31.5468 27.1836C31.5468 28.5036 31.5468 29.8236 31.5468 31.1836C27.2568 31.1836 22.9668 31.1836 18.5468 31.1836C19.2068 29.8636 19.8668 28.5436 20.5468 27.1836Z" fill="black"/>
<path d="M28.5468 72.1836C29.8668 72.5136 31.1868 72.8436 32.5468 73.1836C31.9314 79.7067 31.9314 79.7067 29.9843 82.1211C29.5099 82.4717 29.0356 82.8223 28.5468 83.1836C28.4231 82.3792 28.2993 81.5748 28.1718 80.7461C27.8624 79.4777 27.8624 79.4777 27.5468 78.1836C26.8868 77.8536 26.2268 77.5236 25.5468 77.1836C26.5368 75.5336 27.5268 73.8836 28.5468 72.1836Z" fill="black"/>
<path d="M48.5468 87.1836C50.3384 87.1566 52.1301 87.1372 53.9218 87.1211C54.9195 87.1095 55.9173 87.0979 56.9453 87.0859C59.5468 87.1836 59.5468 87.1836 61.5468 88.1836C61.5468 88.8436 61.5468 89.5036 61.5468 90.1836C58.5319 91.1886 56.505 91.2869 53.3593 91.2461C52.0077 91.2326 52.0077 91.2326 50.6288 91.2188C49.9418 91.2071 49.2547 91.1955 48.5468 91.1836C48.5468 89.8636 48.5468 88.5436 48.5468 87.1836Z" fill="black"/>
<path d="M110.547 54.1836C112.297 56.3086 112.297 56.3086 113.547 59.1836C112.734 62.4961 112.734 62.4961 111.547 65.1836C110.557 64.8536 109.567 64.5236 108.547 64.1836C106.859 60.6211 106.859 60.6211 105.547 57.1836C108.297 54.1836 108.297 54.1836 110.547 54.1836Z" fill="black"/>
<path d="M27.5468 101.184C28.5368 101.184 29.5268 101.184 30.5468 101.184C32.1663 103.756 32.5909 104.86 32.1718 107.934C31.9656 108.676 31.7593 109.419 31.5468 110.184C29.8968 109.854 28.2468 109.524 26.5468 109.184C26.2168 107.534 25.8868 105.884 25.5468 104.184C26.2068 104.184 26.8668 104.184 27.5468 104.184C27.5468 103.194 27.5468 102.204 27.5468 101.184Z" fill="black"/>
<path d="M67.5468 85.1836C69.6988 88.4115 69.7477 89.4676 69.5468 93.1836C68.8868 92.8536 68.2268 92.5236 67.5468 92.1836C66.0101 91.9589 64.4671 91.7756 62.9218 91.6211C62.1045 91.5373 61.2873 91.4535 60.4453 91.3672C59.8188 91.3066 59.1923 91.246 58.5468 91.1836C59.5368 90.8536 60.5268 90.5236 61.5468 90.1836C61.5468 89.5236 61.5468 88.8636 61.5468 88.1836C60.8868 87.8536 60.2268 87.5236 59.5468 87.1836C60.6812 87.0392 61.8156 86.8948 62.9843 86.7461C66.3546 86.5719 66.3546 86.5719 67.5468 85.1836Z" fill="black"/>
<path d="M86.5468 27.1836C89.1868 27.1836 91.8268 27.1836 94.5468 27.1836C95.2068 28.5036 95.8668 29.8236 96.5468 31.1836C92.5868 31.1836 88.6268 31.1836 84.5468 31.1836C85.2068 29.8636 85.8668 28.5436 86.5468 27.1836Z" fill="black"/>
<path d="M54.5468 19.1836C58.8368 19.1836 63.1268 19.1836 67.5468 19.1836C67.2168 20.1736 66.8868 21.1636 66.5468 22.1836C62.9168 22.1836 59.2868 22.1836 55.5468 22.1836C55.2168 21.1936 54.8868 20.2036 54.5468 19.1836Z" fill="black"/>
<path d="M10.5468 127.184C12.4218 127.309 12.4218 127.309 14.5468 128.184C15.7968 131.246 15.7968 131.246 16.5468 134.184C13.6093 133.809 13.6093 133.809 10.5468 133.184C9.30136 130.693 9.77007 129.773 10.5468 127.184Z" fill="black"/>
<path d="M2.54681 107.184C2.87681 108.174 3.20681 109.164 3.54681 110.184C4.20681 110.184 4.86681 110.184 5.54681 110.184C5.54681 112.164 5.54681 114.144 5.54681 116.184C4.22681 116.514 2.90681 116.844 1.54681 117.184C1.51992 115.705 1.50047 114.225 1.48431 112.746C1.47271 111.922 1.46111 111.099 1.44916 110.25C1.54681 108.184 1.54681 108.184 2.54681 107.184Z" fill="black"/>
<path d="M20.5468 36.1836C21.9834 36.1023 23.4213 36.0443 24.8593 35.9961C26.0601 35.9439 26.0601 35.9439 27.2851 35.8906C30.0361 36.247 30.8691 37.028 32.5468 39.1836C32.5468 39.5136 32.5468 39.8436 32.5468 40.1836C30.9208 40.0966 29.2959 39.9884 27.6718 39.8711C26.7669 39.8131 25.862 39.7551 24.9296 39.6953C22.5468 39.1836 22.5468 39.1836 20.5468 36.1836Z" fill="black"/>
<path d="M82.5468 49.1832C82.2168 50.1732 81.8868 51.1632 81.5468 52.1832C79.6992 52.9136 79.6992 52.9136 77.4843 53.3707C76.7508 53.5292 76.0174 53.6878 75.2617 53.8511C74.4128 54.0155 74.4128 54.0155 73.5468 54.1832C73.2168 53.5232 72.8868 52.8632 72.5468 52.1832C73.2068 52.1832 73.8668 52.1832 74.5468 52.1832C74.5468 51.1932 74.5468 50.2032 74.5468 49.1832C77.5995 48.202 79.4942 48.202 82.5468 49.1832Z" fill="black"/>
<path d="M35.5898 18.8906C37.5755 18.9883 39.5611 19.0859 41.5468 19.1836C41.5468 20.1736 41.5468 21.1636 41.5468 22.1836C37.9168 22.1836 34.2868 22.1836 30.5468 22.1836C33.5468 19.1836 33.5468 19.1836 35.5898 18.8906Z" fill="black"/>
<path d="M26.5468 131.184C25.8868 131.184 25.2268 131.184 24.5468 131.184C24.5468 132.174 24.5468 133.164 24.5468 134.184C25.8668 134.514 27.1868 134.844 28.5468 135.184C25.2468 134.854 21.9468 134.524 18.5468 134.184C18.8768 133.194 19.2068 132.204 19.5468 131.184C22.4907 130.006 23.4464 130.15 26.5468 131.184Z" fill="black"/>
<path d="M21.5468 95.1836C22.5368 95.5136 23.5268 95.8436 24.5468 96.1836C24.5468 97.8336 24.5468 99.4836 24.5468 101.184C23.2268 101.184 21.9068 101.184 20.5468 101.184C20.2168 99.5336 19.8868 97.8836 19.5468 96.1836C20.2068 95.8536 20.8668 95.5236 21.5468 95.1836Z" fill="black"/>
<path d="M54.5468 36.184C52.3593 38.7465 52.3593 38.7465 49.5468 41.184C46.7343 40.9965 46.7343 40.9965 44.5468 40.184C45.2068 39.854 45.8668 39.524 46.5468 39.184C46.5468 38.524 46.5468 37.864 46.5468 37.184C49.2556 35.8296 51.5561 36.119 54.5468 36.184Z" fill="black"/>
<path d="M55.5468 27.1836C57.5268 27.1836 59.5068 27.1836 61.5468 27.1836C61.2168 28.5036 60.8868 29.8236 60.5468 31.1836C58.8968 31.1836 57.2468 31.1836 55.5468 31.1836C55.5468 29.8636 55.5468 28.5436 55.5468 27.1836Z" fill="black"/>
<path d="M77.5468 19.1836C81.2343 19.4961 81.2343 19.4961 84.5468 20.1836C84.5468 20.8436 84.5468 21.5036 84.5468 22.1836C81.2468 22.1836 77.9468 22.1836 74.5468 22.1836C75.5368 21.1936 76.5268 20.2036 77.5468 19.1836Z" fill="black"/>
<path d="M20.5468 27.1836C21.8668 27.1836 23.1868 27.1836 24.5468 27.1836C24.8768 28.5036 25.2068 29.8236 25.5468 31.1836C23.2368 31.1836 20.9268 31.1836 18.5468 31.1836C19.2068 29.8636 19.8668 28.5436 20.5468 27.1836Z" fill="black"/>
<path d="M20.5468 48.1836C22.1968 48.1836 23.8468 48.1836 25.5468 48.1836C25.2168 49.5036 24.8868 50.8236 24.5468 52.1836C22.8968 52.5136 21.2468 52.8436 19.5468 53.1836C19.8768 51.5336 20.2068 49.8836 20.5468 48.1836Z" fill="black"/>
<path d="M72.5468 36.1836C75.5168 36.6786 75.5168 36.6786 78.5468 37.1836C78.8768 38.1736 79.2068 39.1636 79.5468 40.1836C77.2368 40.1836 74.9268 40.1836 72.5468 40.1836C72.5468 38.8636 72.5468 37.5436 72.5468 36.1836Z" fill="black"/>
<path d="M81.5468 36.1836C85.5068 36.1836 89.4668 36.1836 93.5468 36.1836C92.2268 36.5136 90.9068 36.8436 89.5468 37.1836C89.5468 37.8436 89.5468 38.5036 89.5468 39.1836C87.2343 39.3711 87.2343 39.3711 84.5468 39.1836C83.5568 38.1936 82.5668 37.2036 81.5468 36.1836Z" fill="black"/>
<path d="M21.5468 96.1833C20.8868 96.1833 20.2268 96.1833 19.5468 96.1833C19.8768 97.5033 20.2068 98.8233 20.5468 100.183C18.8968 99.8533 17.2468 99.5233 15.5468 99.1833C15.5468 98.1933 15.5468 97.2033 15.5468 96.1833C18.0377 94.9378 18.9576 95.4065 21.5468 96.1833Z" fill="black"/>
<path d="M18.5468 48.1836C19.2068 48.5136 19.8668 48.8436 20.5468 49.1836C20.2168 50.5036 19.8868 51.8236 19.5468 53.1836C18.2268 53.5136 16.9068 53.8436 15.5468 54.1836C15.2168 53.1936 14.8868 52.2036 14.5468 51.1836C15.5468 49.1836 15.5468 49.1836 18.5468 48.1836Z" fill="black"/>
<path d="M63.5468 37.1835C69.0853 36.8142 69.0853 36.8142 71.4218 38.6835C71.7931 39.1785 72.1643 39.6735 72.5468 40.1835C69.9068 40.5135 67.2668 40.8435 64.5468 41.1835C64.2168 39.8635 63.8868 38.5435 63.5468 37.1835Z" fill="black"/>
<path d="M7.54681 37.1836C9.52681 37.1836 11.5068 37.1836 13.5468 37.1836C13.5468 38.1736 13.5468 39.1636 13.5468 40.1836C11.2368 40.1836 8.92681 40.1836 6.54681 40.1836C6.87681 39.1936 7.20681 38.2036 7.54681 37.1836Z" fill="black"/>
<path d="M55.5468 87.1836C58.5168 87.6786 58.5168 87.6786 61.5468 88.1836C61.5468 88.8436 61.5468 89.5036 61.5468 90.1836C58.0736 91.3413 55.1861 91.2523 51.5468 91.1836C51.5468 90.8536 51.5468 90.5236 51.5468 90.1836C53.5268 90.1836 55.5068 90.1836 57.5468 90.1836C57.5468 89.5236 57.5468 88.8636 57.5468 88.1836C56.8868 87.8536 56.2268 87.5236 55.5468 87.1836Z" fill="black"/>
<path d="M26.5468 79.1836C27.2068 80.1736 27.8668 81.1636 28.5468 82.1836C27.8868 83.5036 27.2268 84.8236 26.5468 86.1836C25.8868 85.8536 25.2268 85.5236 24.5468 85.1836C25.4218 80.3086 25.4218 80.3086 26.5468 79.1836Z" fill="black"/>
<path d="M198.746 43.44H180.826V115.76L194.01 118.32V126H154.97V118.32L168.154 115.76V43.44H150.106L148.442 62.64H138.33V33.84H210.65V62.64H200.538L198.746 43.44ZM263.02 86.704C263.02 84.4853 262.892 82.352 262.636 80.304C262.38 78.256 261.868 76.464 261.1 74.928C260.332 73.3067 259.18 72.0267 257.644 71.088C256.108 70.1493 254.06 69.68 251.5 69.68C249.025 69.68 246.892 70.1067 245.1 70.96C243.393 71.8133 241.985 72.9653 240.876 74.416C239.767 75.7813 238.913 77.4027 238.316 79.28C237.804 81.1573 237.548 83.12 237.548 85.168V115.76L247.148 118.32V126H215.788V118.32L225.388 115.76V39.6L215.66 37.04V29.36H237.548V72.24C238.316 68.4 240.321 65.5413 243.564 63.664C246.892 61.7013 250.86 60.72 255.468 60.72C259.735 60.72 263.148 61.488 265.708 63.024C268.353 64.56 270.359 66.5653 271.724 69.04C273.175 71.5147 274.113 74.3307 274.54 77.488C275.052 80.56 275.308 83.6747 275.308 86.832V115.76L284.908 118.32V126H263.02V86.704ZM318.121 127.28C313.001 127.28 308.734 126.512 305.321 124.976C301.908 123.44 299.177 121.221 297.129 118.32C295.081 115.419 293.63 111.92 292.777 107.824C291.924 103.728 291.497 99.12 291.497 94C291.497 88.88 291.924 84.272 292.777 80.176C293.63 75.9947 295.081 72.496 297.129 69.68C299.262 66.7787 302.036 64.56 305.449 63.024C308.948 61.488 313.257 60.72 318.377 60.72C322.729 60.72 326.356 61.3173 329.257 62.512C332.158 63.7067 334.505 65.5413 336.297 68.016C338.089 70.4053 339.369 73.4773 340.137 77.232C340.905 80.9013 341.289 85.2533 341.289 90.288C341.289 91.312 341.289 92.3787 341.289 93.488C341.289 94.512 341.246 95.6213 341.161 96.816H305.065C305.065 99.9733 305.193 102.96 305.449 105.776C305.705 108.507 306.26 110.896 307.113 112.944C308.052 114.992 309.374 116.613 311.081 117.808C312.788 119.003 315.134 119.6 318.121 119.6C320.596 119.6 322.558 119.216 324.009 118.448C325.545 117.595 326.697 116.571 327.465 115.376C328.233 114.096 328.745 112.731 329.001 111.28C329.257 109.829 329.428 108.421 329.513 107.056H341.161C340.905 109.531 340.35 112.005 339.497 114.48C338.729 116.869 337.449 119.045 335.657 121.008C333.95 122.885 331.689 124.421 328.873 125.616C326.057 126.725 322.473 127.28 318.121 127.28ZM317.609 68.4C314.964 68.4 312.83 68.9547 311.209 70.064C309.588 71.1733 308.308 72.6667 307.369 74.544C306.516 76.4213 305.918 78.64 305.577 81.2C305.321 83.6747 305.15 86.32 305.065 89.136H329.385C329.385 81.456 328.446 76.08 326.569 73.008C324.777 69.936 321.79 68.4 317.609 68.4ZM462.367 41.52L450.463 44.08V115.76L462.367 118.32V126H425.887V118.32L437.791 115.76V84.656H400.799V115.76L412.703 118.32V126H376.223V118.32L388.127 115.76V44.08L376.223 41.52V33.84H412.703V41.52L400.799 44.08V74.032H437.791V44.08L425.887 41.52V33.84H462.367V41.52ZM470.464 118.32L479.808 115.76V71.472L470.208 68.912V62H491.968V115.76L501.568 118.32V126H470.464V118.32ZM485.44 49.328C483.051 49.328 481.088 48.56 479.552 47.024C478.016 45.488 477.248 43.5253 477.248 41.136C477.248 38.7467 478.016 36.8267 479.552 35.376C481.088 33.84 483.051 33.072 485.44 33.072C487.829 33.072 489.792 33.84 491.328 35.376C492.864 36.8267 493.632 38.7467 493.632 41.136C493.632 43.5253 492.864 45.488 491.328 47.024C489.792 48.56 487.829 49.328 485.44 49.328ZM504.785 64.56L514.385 62L516.945 45.232H526.545V62H538.577V71.344H526.545V106.16C526.545 110.085 527.014 112.944 527.953 114.736C528.892 116.528 530.428 117.424 532.561 117.424C533.5 117.424 534.694 117.296 536.145 117.04C537.596 116.784 538.961 116.443 540.241 116.016L542.929 123.184C541.649 124.379 539.772 125.36 537.297 126.128C534.908 126.896 532.39 127.28 529.745 127.28C524.369 127.28 520.444 125.616 517.969 122.288C515.58 118.875 514.385 113.499 514.385 106.16V71.344H504.785V64.56ZM567.816 127.28C565.683 127.28 563.421 126.981 561.032 126.384C558.728 125.872 556.595 124.933 554.632 123.568C552.669 122.117 551.048 120.197 549.768 117.808C548.488 115.333 547.848 112.219 547.848 108.464C547.848 105.733 548.275 103.259 549.128 101.04C549.981 98.736 551.347 96.7733 553.224 95.152C555.101 93.5307 557.533 92.2507 560.52 91.312C563.592 90.288 567.347 89.648 571.784 89.392L585.096 88.752V82.992C585.096 79.3227 584.371 76.208 582.92 73.648C581.469 71.0027 578.739 69.68 574.728 69.68C572.509 69.68 570.632 70.064 569.096 70.832C567.56 71.6 566.28 72.624 565.256 73.904C564.317 75.184 563.592 76.6347 563.08 78.256C562.653 79.792 562.44 81.328 562.44 82.864H551.56V62H559.88L562.44 70.064H562.952C564.659 66.736 566.963 64.3467 569.864 62.896C572.765 61.4453 576.136 60.72 579.976 60.72C585.437 60.72 589.661 62.0853 592.648 64.816C595.72 67.5467 597.256 71.9413 597.256 78V115.76L606.856 118.32V126H587.656L585.096 116.784C584.413 119.003 583.389 120.795 582.024 122.16C580.659 123.525 579.165 124.592 577.544 125.36C575.923 126.128 574.216 126.64 572.424 126.896C570.717 127.152 569.181 127.28 567.816 127.28ZM571.272 118.32C573.832 118.32 576.008 117.808 577.8 116.784C579.592 115.675 581 114.309 582.024 112.688C583.133 110.981 583.901 109.104 584.328 107.056C584.84 104.923 585.096 102.832 585.096 100.784V95.408L573.704 96.048C570.973 96.2187 568.755 96.6453 567.048 97.328C565.341 98.0107 563.976 98.9067 562.952 100.016C561.928 101.04 561.203 102.235 560.776 103.6C560.435 104.88 560.264 106.245 560.264 107.696C560.264 109.829 560.605 111.579 561.288 112.944C561.971 114.309 562.824 115.419 563.848 116.272C564.872 117.04 566.024 117.595 567.304 117.936C568.669 118.192 569.992 118.32 571.272 118.32Z" fill="black"/>
</svg>
