<svg width="115" height="118" viewBox="0 0 115 118" fill="none" xmlns="http://www.w3.org/2000/svg">
<path d="M23.3437 28.1363C24.6315 28.1382 25.9192 28.1401 27.246 28.1421C27.9104 28.1483 28.5747 28.1545 29.2592 28.1609C31.3044 28.1793 33.3492 28.1814 35.3945 28.1812C45.4065 28.2265 45.4065 28.2265 46.5468 29.3667C46.6946 32.0921 46.7818 34.7954 46.8281 37.523C46.8557 38.7492 46.8557 38.7492 46.8838 40.0002C46.9628 43.5127 47.0304 47.0254 47.0991 50.5381C47.1507 53.0957 47.208 55.6531 47.2656 58.2105C47.2791 59.0115 47.2927 59.8125 47.3067 60.6378C47.0485 64.305 47.0485 64.305 48.5468 67.3667C49.8772 67.4651 51.2127 67.4975 52.5468 67.4995C53.3512 67.5008 54.1556 67.5021 54.9843 67.5034C56.2527 67.4976 56.2527 67.4976 57.5468 67.4917C58.3924 67.4956 59.2381 67.4995 60.1093 67.5034C60.9137 67.5022 61.7181 67.5009 62.5468 67.4995C63.6606 67.4979 63.6606 67.4979 64.7968 67.4961C66.5751 67.5562 66.5751 67.5562 67.5468 66.3667C67.6822 63.7258 67.7574 61.1072 67.7929 58.4644C67.8258 56.8361 67.859 55.2079 67.8925 53.5796C67.94 51.001 67.9844 48.4223 68.0236 45.8435C68.0632 43.3627 68.1148 40.8824 68.1679 38.4019C68.1763 37.6279 68.1847 36.8539 68.1934 36.0564C68.3201 30.5934 68.3201 30.5934 70.5468 28.3667C74.8811 27.8754 79.2504 27.9963 83.6093 27.9917C84.8126 27.9672 86.016 27.9427 87.2558 27.9175C96.0842 27.8886 102.538 29.0554 109.422 34.7417C115.007 41.6408 115.334 47.6891 114.547 56.3667C112.836 61.9021 109.093 65.004 104.547 68.3667C101.064 70.1082 97.3549 69.8155 93.5468 69.3667C89.7944 68.0466 87.1416 66.0958 84.6093 62.9917C83.3761 59.945 83.3195 57.6245 83.5468 54.3667C84.8668 54.0367 86.1868 53.7067 87.5468 53.3667C87.9451 54.2156 87.9451 54.2156 88.3515 55.0816C88.7047 55.8151 89.0579 56.5485 89.4218 57.3042C89.7699 58.0351 90.1179 58.766 90.4765 59.5191C91.4153 61.5301 91.4153 61.5301 93.5468 62.3667C96.6062 62.7875 99.4928 62.8467 102.547 62.3667C105.829 59.837 107.239 58.2894 108.547 54.3667C109.318 47.8399 108.465 43.6618 104.547 38.3667C96.9457 33.223 96.9457 33.223 74.5468 35.3667C74.5468 60.1167 74.5468 84.8667 74.5468 110.367C94.4459 111.811 94.4459 111.811 103.547 107.367C108.127 102.666 108.909 98.9002 108.836 92.398C108.357 89.0362 106.678 86.9247 104.547 84.3667C100.796 81.8664 98.9882 81.8307 94.5468 82.3667C91.298 84.9658 89.1194 87.5067 87.5468 91.3667C86.2268 91.3667 84.9068 91.3667 83.5468 91.3667C82.9494 85.3925 82.9494 85.3925 84.5546 82.6363C87.2418 79.3778 89.7079 76.589 94.0351 76.0659C99.5912 76.0429 103.852 76.0458 108.547 79.3667C114.138 85.4242 115.005 89.9821 114.859 98.1011C114.284 104.111 112.089 108.237 107.609 112.242C102.489 115.794 98.758 116.618 92.5312 116.597C91.8747 116.597 91.2183 116.596 90.542 116.596C89.1637 116.593 87.7854 116.585 86.4072 116.573C84.2895 116.554 82.1723 116.552 80.0546 116.552C69.6944 116.514 69.6944 116.514 68.5468 115.367C68.3864 112.266 68.2872 109.185 68.2304 106.082C68.1992 104.685 68.1992 104.685 68.1674 103.261C68.1018 100.275 68.043 97.2899 67.9843 94.3042C67.9411 92.2853 67.8975 90.2665 67.8534 88.2476C67.7461 83.2874 67.6449 78.3271 67.5468 73.3667C64.401 73.3378 61.2552 73.32 58.1093 73.3042C57.2115 73.2959 56.3136 73.2875 55.3886 73.2788C54.5346 73.2756 53.6806 73.2724 52.8007 73.2691C51.6146 73.2612 51.6146 73.2612 50.4045 73.2532C48.5309 73.1618 48.5309 73.1618 47.5468 74.3667C47.3988 77.3831 47.3117 80.3795 47.2656 83.398C47.2471 84.3042 47.2287 85.2105 47.2098 86.1442C47.1508 89.0516 47.0981 91.9591 47.0468 94.8667C46.9794 98.6898 46.9057 102.513 46.8281 106.335C46.8145 107.224 46.8009 108.113 46.7869 109.028C46.6596 115.254 46.6596 115.254 45.5468 116.367C41.3996 116.635 37.2485 116.638 33.0934 116.662C31.0167 116.679 28.9415 116.723 26.8652 116.767C18.1432 116.869 11.7467 116.453 5.2343 110.117C1.15947 103.476 -0.54695 97.1846 0.546805 89.3667C2.07673 84.1486 4.81225 80.1549 9.4179 77.2105C14.631 75.1444 20.351 75.4791 25.4843 77.5542C29.9306 81.4616 31.9904 84.3848 32.5468 90.3667C30.0718 90.8617 30.0718 90.8617 27.5468 91.3667C24.5468 85.6167 24.5468 85.6167 24.5468 83.3667C20.817 82.1732 17.4386 81.9571 13.5468 82.3667C10.6496 84.6795 10.6496 84.6795 8.5468 87.3667C8.0518 87.8617 8.0518 87.8617 7.5468 88.3667C6.76012 97.9195 6.76012 97.9195 10.5468 106.367C16.6974 110.932 21.928 110.889 29.4218 110.679C30.4788 110.67 31.5359 110.66 32.6249 110.65C37.4345 111.018 37.4345 111.018 41.5468 109.367C41.6412 107.066 41.6642 104.763 41.6603 102.46C41.6605 101.738 41.6606 101.016 41.6608 100.273C41.6601 97.8756 41.6523 95.4786 41.6445 93.0816C41.6426 91.4239 41.6412 89.7662 41.6402 88.1086C41.6363 83.7372 41.6265 79.3658 41.6155 74.9945C41.6053 70.5372 41.6007 66.0799 41.5956 61.6226C41.5849 52.8706 41.5678 44.1187 41.5468 35.3667C37.5053 35.2793 33.464 35.2262 29.4218 35.1792C28.2797 35.1541 27.1376 35.129 25.9609 35.1031C17.8139 34.9633 17.8139 34.9633 10.5468 38.3667C6.79022 43.0227 6.9809 47.479 7.14446 53.2495C7.51703 56.1361 7.84818 57.8128 9.4843 60.1792C13.0823 62.7492 15.1309 63.1328 19.4648 62.8238C22.5431 62.148 23.7534 60.9188 25.5468 58.3667C26.5903 56.7269 27.6029 55.0658 28.5468 53.3667C29.8668 53.6967 31.1868 54.0267 32.5468 54.3667C32.1767 60.5353 30.7891 63.1245 26.5468 67.3667C22.9918 70.0636 18.8316 69.8722 14.5468 69.3667C7.96847 67.3598 4.94236 64.3089 1.43352 58.5347C-0.627475 53.4957 -0.238284 47.1968 1.19915 42.0152C3.77497 36.2887 8.09975 32.0367 13.7394 29.3045C17.0796 28.1888 19.824 28.124 23.3437 28.1363Z" fill="white"/>
<path d="M23.3437 28.1369C24.6315 28.1388 25.9192 28.1408 27.246 28.1428C27.9104 28.149 28.5747 28.1552 29.2592 28.1616C31.3044 28.1799 33.3492 28.1821 35.3945 28.1818C45.4065 28.2271 45.4065 28.2271 46.5468 29.3674C46.6946 32.0927 46.7818 34.796 46.8281 37.5236C46.8557 38.7498 46.8557 38.7498 46.8838 40.0008C46.9628 43.5133 47.0304 47.026 47.0991 50.5388C47.1507 53.0963 47.208 55.6537 47.2656 58.2111C47.2791 59.0122 47.2927 59.8132 47.3067 60.6385C47.0485 64.3057 47.0485 64.3057 48.5468 67.3674C50.3549 67.5763 52.169 67.7352 53.9843 67.8674C59.327 68.2574 59.327 68.2574 61.5468 69.3674C61.5468 70.0274 61.5468 70.6874 61.5468 71.3674C60.1566 71.5665 60.1566 71.5665 58.7382 71.7697C57.5407 71.9463 56.3431 72.1229 55.1093 72.3049C53.9143 72.4789 52.7194 72.6529 51.4882 72.8322C48.6672 73.0572 48.6672 73.0572 47.5468 74.3674C47.3988 77.3838 47.3117 80.3801 47.2656 83.3986C47.2471 84.3049 47.2287 85.2111 47.2098 86.1448C47.1508 89.0523 47.0981 91.9598 47.0468 94.8674C46.9794 98.6904 46.9057 102.513 46.8281 106.336C46.8145 107.225 46.8009 108.113 46.7869 109.029C46.6596 115.255 46.6596 115.255 45.5468 116.367C41.3996 116.635 37.2485 116.639 33.0934 116.663C31.0167 116.68 28.9415 116.723 26.8652 116.768C18.1432 116.87 11.7467 116.454 5.2343 110.117C1.15947 103.477 -0.54695 97.1852 0.546805 89.3674C2.07673 84.1492 4.81225 80.1555 9.4179 77.2111C14.631 75.145 20.351 75.4797 25.4843 77.5549C29.9306 81.4623 31.9904 84.3855 32.5468 90.3674C30.0718 90.8624 30.0718 90.8624 27.5468 91.3674C24.5468 85.6174 24.5468 85.6174 24.5468 83.3674C20.817 82.1738 17.4386 81.9577 13.5468 82.3674C10.6496 84.6801 10.6496 84.6801 8.5468 87.3674C8.0518 87.8624 8.0518 87.8624 7.5468 88.3674C6.76012 97.9202 6.76012 97.9202 10.5468 106.367C16.6974 110.932 21.928 110.89 29.4218 110.68C30.4788 110.67 31.5359 110.661 32.6249 110.651C37.4345 111.019 37.4345 111.019 41.5468 109.367C41.6412 107.067 41.6642 104.763 41.6603 102.461C41.6605 101.739 41.6606 101.017 41.6608 100.273C41.6601 97.8762 41.6523 95.4792 41.6445 93.0822C41.6426 91.4245 41.6412 89.7669 41.6402 88.1092C41.6363 83.7378 41.6265 79.3665 41.6155 74.9951C41.6053 70.5378 41.6007 66.0805 41.5956 61.6232C41.5849 52.8713 41.5678 44.1193 41.5468 35.3674C37.5053 35.2799 33.464 35.2268 29.4218 35.1799C28.2797 35.1547 27.1376 35.1296 25.9609 35.1037C17.8139 34.9639 17.8139 34.9639 10.5468 38.3674C6.79022 43.0233 6.9809 47.4796 7.14446 53.2502C7.51703 56.1367 7.84818 57.8134 9.4843 60.1799C13.0823 62.7499 15.1309 63.1334 19.4648 62.8244C22.5431 62.1487 23.7534 60.9195 25.5468 58.3674C26.5903 56.7276 27.6029 55.0664 28.5468 53.3674C29.8668 53.6974 31.1868 54.0274 32.5468 54.3674C32.1767 60.536 30.7891 63.1251 26.5468 67.3674C22.9918 70.0643 18.8316 69.8729 14.5468 69.3674C7.96847 67.3604 4.94236 64.3095 1.43352 58.5353C-0.627475 53.4963 -0.238284 47.1975 1.19915 42.0158C3.77497 36.2893 8.09975 32.0374 13.7394 29.3051C17.0796 28.1894 19.824 28.1247 23.3437 28.1369Z" fill="white"/>
<path d="M17.6088 17.2057C18.56 17.2007 19.5112 17.1957 20.4912 17.1906C23.653 17.1759 26.8147 17.1692 29.9765 17.1637C32.1651 17.1579 34.3536 17.1522 36.5422 17.1464C41.1373 17.1359 45.7324 17.13 50.3276 17.1266C56.2249 17.1211 62.1221 17.097 68.0194 17.0686C72.542 17.05 77.0646 17.0448 81.5873 17.0432C83.7619 17.0402 85.9364 17.0321 88.111 17.019C91.1495 17.002 94.1875 17.0038 97.226 17.0103C98.13 17.0011 99.034 16.9919 99.9655 16.9824C100.793 16.988 101.62 16.9936 102.472 16.9993C103.191 16.9978 103.91 16.9964 104.65 16.9949C107.113 17.4779 108.024 18.4082 109.547 20.3668C109.547 21.0268 109.547 21.6868 109.547 22.3668C108.235 22.3761 106.923 22.3855 105.571 22.3951C100.703 22.435 95.8355 22.5007 90.9677 22.5743C88.861 22.6025 86.7542 22.6237 84.6474 22.6378C81.6185 22.6592 78.5909 22.7058 75.5624 22.7574C74.6206 22.7586 73.6788 22.7599 72.7085 22.7611C68.8873 22.8467 66.2964 22.93 62.9589 24.8746C60.9317 28.4524 60.9437 31.8438 60.9374 35.8512C60.9209 36.6668 60.9044 37.4824 60.8873 38.3227C60.8388 40.9208 60.8175 43.5183 60.7968 46.1168C60.7687 47.8811 60.7387 49.6455 60.707 51.4098C60.6331 55.7287 60.5835 60.0474 60.5468 64.3668C58.5668 64.3668 56.5868 64.3668 54.5468 64.3668C54.5375 63.2669 54.5281 62.167 54.5185 61.0338C54.4786 56.9482 54.4128 52.8635 54.3393 48.7784C54.3111 47.0113 54.2899 45.244 54.2758 43.4767C54.2544 40.9342 54.2077 38.3932 54.1562 35.8512C54.155 35.0625 54.1537 34.2738 54.1525 33.4612C54.0647 30.1667 53.7689 27.7549 52.121 24.8746C48.1246 22.5338 44.3045 22.7635 39.7499 22.7574C38.3268 22.7326 38.3268 22.7326 36.8749 22.7073C33.8488 22.6588 30.8232 22.6374 27.7968 22.6168C25.7434 22.5886 23.69 22.5587 21.6367 22.5269C16.6068 22.453 11.5771 22.4035 6.54681 22.3668C8.02849 15.8051 11.5346 17.2131 17.6088 17.2057Z" fill="white"/>
<path d="M69.5468 29.3672C70.5368 29.6972 71.5268 30.0272 72.5468 30.3672C71.8868 31.0272 71.2268 31.6872 70.5468 32.3672C70.1544 35.4178 70.1544 35.4178 70.0976 39.0742C70.0754 39.7713 70.0533 40.4683 70.0305 41.1865C69.9616 43.5174 69.9095 45.8483 69.8593 48.1797C69.8289 49.3775 69.8289 49.3775 69.7978 50.5995C69.2696 71.8614 69.9011 93.1142 70.5468 114.367C71.8668 114.697 73.1868 115.027 74.5468 115.367C74.5468 114.377 74.5468 113.387 74.5468 112.367C79.685 111.128 84.875 111.068 90.1328 110.938C96.3715 110.67 101.407 109.564 105.922 104.93C108.802 100.388 109.307 95.7111 108.547 90.3672C106.532 86.6151 105.092 84.7307 101.547 82.3672C98.1314 81.7835 98.1314 81.7835 94.5468 82.3672C91.298 84.9663 89.1194 87.5072 87.5468 91.3672C86.2268 91.3672 84.9068 91.3672 83.5468 91.3672C82.9494 85.393 82.9494 85.393 84.5546 82.6367C87.2418 79.3783 89.7079 76.5895 94.0351 76.0664C99.5912 76.0434 103.852 76.0463 108.547 79.3672C114.138 85.4247 115.005 89.9826 114.859 98.1016C114.284 104.112 112.089 108.237 107.609 112.242C102.489 115.795 98.758 116.619 92.5312 116.598C91.8748 116.597 91.2183 116.597 90.542 116.596C89.1637 116.593 87.7854 116.585 86.4072 116.573C84.2895 116.555 82.1723 116.552 80.0546 116.553C69.6944 116.515 69.6944 116.515 68.5468 115.367C68.3864 112.266 68.2872 109.185 68.2304 106.082C68.2096 105.151 68.1888 104.22 68.1674 103.261C68.1018 100.276 68.043 97.2903 67.9843 94.3047C67.9411 92.2858 67.8975 90.2669 67.8535 88.248C67.7461 83.2879 67.6449 78.3276 67.5468 73.3672C64.5768 73.0372 61.6068 72.7072 58.5468 72.3672C60.0318 71.8722 60.0318 71.8722 61.5468 71.3672C61.5468 70.7072 61.5468 70.0472 61.5468 69.3672C60.8868 69.0372 60.2268 68.7072 59.5468 68.3672C60.6812 68.2228 61.8156 68.0784 62.9843 67.9297C66.3546 67.7555 66.3546 67.7555 67.5468 66.3672C67.6945 63.7146 67.7818 61.0846 67.8281 58.4297C67.8465 57.6344 67.8649 56.8391 67.8839 56.0198C67.9428 53.469 67.9955 50.9181 68.0468 48.3672C68.1143 45.0129 68.1879 41.6588 68.2656 38.3047C68.2791 37.5255 68.2927 36.7464 68.3067 35.9436C68.434 30.48 68.434 30.48 69.5468 29.3672Z" fill="white"/>
<path d="M63.019 17.2064C63.9702 17.1968 64.9215 17.1871 65.9015 17.1772C66.9369 17.173 67.9723 17.1687 69.039 17.1644C70.6243 17.1558 70.6243 17.1558 72.2417 17.1471C74.4829 17.1376 76.7241 17.1311 78.9653 17.1273C82.4003 17.1176 85.8346 17.0865 89.2695 17.055C91.4426 17.0485 93.6158 17.0432 95.789 17.0394C96.8203 17.027 97.8516 17.0147 98.9142 17.002C99.8718 17.005 100.829 17.008 101.816 17.011C102.659 17.0074 103.502 17.0038 104.371 17C107.037 17.4503 107.939 18.2278 109.547 20.3675C109.547 21.0275 109.547 21.6875 109.547 22.3675C107.579 22.3815 107.579 22.3815 105.571 22.3958C100.703 22.4357 95.8355 22.5014 90.9677 22.575C88.861 22.6032 86.7542 22.6244 84.6474 22.6385C81.6185 22.6599 78.5909 22.7065 75.5624 22.7581C74.6206 22.7593 73.6788 22.7606 72.7085 22.7618C68.8786 22.8476 66.2972 22.9263 62.9589 24.889C60.9578 28.4012 60.9438 31.6942 60.9374 35.6331C60.9209 36.4265 60.9044 37.2199 60.8873 38.0374C60.8389 40.5641 60.8175 43.0903 60.7968 45.6175C60.7687 47.3337 60.7387 49.0498 60.707 50.7659C60.6331 54.9664 60.5835 59.1665 60.5468 63.3675C58.8968 63.3675 57.2468 63.3675 55.5468 63.3675C56.5368 62.8725 56.5368 62.8725 57.5468 62.3675C57.5446 61.8185 57.5424 61.2695 57.5401 60.7038C57.518 55.0104 57.5029 49.317 57.4919 43.6236C57.4868 41.4963 57.48 39.369 57.4714 37.2418C57.4593 34.1912 57.4536 31.1407 57.4492 28.0901C57.444 27.1329 57.4388 26.1756 57.4335 25.1893C57.4334 24.3084 57.4334 23.4276 57.4333 22.5201C57.4311 21.7406 57.4288 20.9612 57.4266 20.1582C57.6692 16.5453 59.9308 17.2314 63.019 17.2064Z" fill="white"/>
<path d="M27.4057 8.20636C28.1228 8.20139 28.8399 8.19643 29.5787 8.19131C31.9613 8.17666 34.3439 8.16989 36.7265 8.16437C38.377 8.15862 40.0275 8.15286 41.6779 8.14709C45.1432 8.13657 48.6084 8.13074 52.0737 8.12726C56.5183 8.12177 60.9625 8.09775 65.407 8.06929C68.8179 8.05068 72.2287 8.04546 75.6397 8.04392C77.2783 8.04089 78.917 8.03284 80.5557 8.01974C82.8471 8.00272 85.1377 8.00455 87.4291 8.01105C89.3865 8.00558 89.3865 8.00558 91.3835 8C94.5468 8.36749 94.5468 8.36749 96.4917 9.76477C97.5468 11.3675 97.5468 11.3675 97.5468 13.3675C71.1468 13.3675 44.7468 13.3675 17.5468 13.3675C20.4714 7.51834 21.0028 8.2399 27.4057 8.20636Z" fill="white"/>
<path d="M25.4843 77.5547C29.9307 81.462 31.9904 84.3853 32.5468 90.3672C30.8968 90.6972 29.2468 91.0272 27.5468 91.3672C24.5468 85.6172 24.5468 85.6172 24.5468 83.3672C20.817 82.1736 17.4386 81.9575 13.5468 82.3672C10.6496 84.6799 10.6496 84.6799 8.54684 87.3672C8.21684 87.6972 7.88684 88.0272 7.54684 88.3672C7.02216 94.8549 6.65874 100.87 10.5468 106.367C11.4131 107.233 12.2793 108.1 13.1718 108.992C15.4585 111.279 16.1986 112.233 16.5468 115.367C12.1945 115.056 9.20015 114.058 5.93746 111.07C1.45796 105.584 -0.171298 98.7244 0.16793 91.7539C1.04312 86.2411 3.36762 82.0073 7.60934 78.3672C12.9876 74.9288 19.7179 75.2236 25.4843 77.5547Z" fill="white"/>
<path d="M10.5468 31.3672C11.9229 34.1194 11.3667 35.4294 10.5468 38.3672C10.0467 39.1148 9.54651 39.8625 9.03119 40.6328C6.34487 45.5813 6.84099 50.8987 7.54682 56.3672C8.76963 59.6635 9.53298 60.2144 12.5468 62.3672C15.7015 63.0689 18.3911 63.0599 21.5468 62.3672C24.867 60.0081 26.5834 56.9013 28.5468 53.3672C29.8668 53.6972 31.1868 54.0272 32.5468 54.3672C32.1767 60.5358 30.7891 63.1249 26.5468 67.3672C22.9918 70.0641 18.8316 69.8727 14.5468 69.3672C7.96848 67.3602 4.94237 64.3093 1.43354 58.5352C-0.630463 53.4888 -0.256686 47.1566 1.23432 41.9805C3.41054 37.22 6.347 34.4216 10.5468 31.3672Z" fill="white"/>
<path d="M54.5468 76.3672C56.5268 76.3672 58.5068 76.3672 60.5468 76.3672C60.5468 89.8972 60.5468 103.427 60.5468 117.367C58.5668 117.367 56.5868 117.367 54.5468 117.367C54.5468 103.837 54.5468 90.3072 54.5468 76.3672Z" fill="white"/>
<path d="M58.5468 18.3676C58.5276 18.9144 58.5084 19.4612 58.4887 20.0246C58.2924 25.7014 58.1174 31.3786 57.9548 37.0566C57.8912 39.1772 57.8222 41.2976 57.7477 43.4179C57.6418 46.4608 57.5552 49.5037 57.4726 52.5473C57.4352 53.4994 57.3979 54.4515 57.3594 55.4325C57.3391 56.3133 57.3189 57.194 57.298 58.1015C57.2736 58.8787 57.2492 59.6559 57.224 60.4567C57.3838 61.4026 57.3838 61.4026 57.5468 62.3676C58.5368 63.0276 59.5268 63.6876 60.5468 64.3676C58.5668 64.3676 56.5868 64.3676 54.5468 64.3676C54.5328 62.7178 54.5328 62.7178 54.5185 61.0346C54.4786 56.9491 54.4128 52.8643 54.3393 48.7792C54.3111 47.0121 54.2899 45.2448 54.2758 43.4775C54.2544 40.935 54.2077 38.394 54.1562 35.852C54.155 35.0633 54.1537 34.2746 54.1525 33.462C54.0539 29.759 53.8689 27.7675 51.5087 24.8373C50.8613 24.3523 50.2139 23.8673 49.5468 23.3676C50.3593 20.9301 50.3593 20.9301 51.5468 18.3676C54.6803 17.3231 55.5365 17.4334 58.5468 18.3676Z" fill="white"/>
<path d="M75.5468 17.3669C79.9067 17.2928 84.2663 17.2383 88.6266 17.2021C90.1098 17.1871 91.5929 17.1666 93.0759 17.1406C95.2082 17.1042 97.34 17.0872 99.4726 17.074C101.397 17.0504 101.397 17.0504 103.361 17.0264C106.547 17.3669 106.547 17.3669 108.489 18.7603C109.547 20.3669 109.547 20.3669 109.547 22.3669C95.6868 22.3669 81.8268 22.3669 67.5468 22.3669C67.5468 22.0369 67.5468 21.7069 67.5468 21.3669C72.9918 20.8719 72.9918 20.8719 78.5468 20.3669C78.5468 19.7069 78.5468 19.0469 78.5468 18.3669C77.5568 18.0369 76.5668 17.7069 75.5468 17.3669Z" fill="white"/>
<path d="M55.5468 8.36719C68.4168 8.36719 81.2868 8.36719 94.5468 8.36719C95.2068 9.68719 95.8668 11.0072 96.5468 12.3672C83.0168 12.3672 69.4868 12.3672 55.5468 12.3672C55.5468 11.0472 55.5468 9.72719 55.5468 8.36719Z" fill="white"/>
<path d="M35.7543 0C37.041 0.00546844 37.041 0.00546844 38.3537 0.0110474C39.8152 0.00654572 39.8152 0.00654572 41.3062 0.00195312C42.3563 0.0142999 43.4063 0.0266467 44.4882 0.0393677C45.5668 0.0412408 46.6455 0.043114 47.7568 0.0450439C50.0373 0.0517684 52.3179 0.0656907 54.5983 0.0862427C58.0988 0.117399 61.5989 0.127213 65.0995 0.133118C67.3124 0.142287 69.5253 0.152663 71.7382 0.164368C72.7903 0.168618 73.8424 0.172867 74.9263 0.177246C75.8975 0.186854 76.8687 0.196461 77.8693 0.20636C78.7263 0.213188 79.5833 0.220016 80.4663 0.227051C82.5468 0.367493 82.5468 0.367493 84.5468 1.36749C84.5468 2.02749 84.5468 2.68749 84.5468 3.36749C66.7268 3.36749 48.9068 3.36749 30.5468 3.36749C33.5468 0.367493 33.5468 0.367493 35.7543 0Z" fill="white"/>
<path d="M69.5468 29.3672C70.5368 29.6972 71.5268 30.0272 72.5468 30.3672C71.8868 31.0272 71.2268 31.6872 70.5468 32.3672C70.1544 35.4178 70.1544 35.4178 70.0976 39.0742C70.0754 39.7713 70.0533 40.4683 70.0305 41.1865C69.9616 43.5174 69.9095 45.8483 69.8593 48.1797C69.8289 49.3775 69.8289 49.3775 69.7978 50.5995C69.2696 71.8614 69.9011 93.1142 70.5468 114.367C73.5168 114.697 76.4868 115.027 79.5468 115.367C79.5468 115.697 79.5468 116.027 79.5468 116.367C77.9011 116.394 76.2552 116.414 74.6093 116.43C73.6928 116.441 72.7763 116.453 71.832 116.465C69.5468 116.367 69.5468 116.367 68.5468 115.367C68.3864 112.266 68.2872 109.185 68.2304 106.082C68.2096 105.151 68.1888 104.22 68.1674 103.261C68.1018 100.276 68.043 97.2903 67.9843 94.3047C67.9411 92.2858 67.8975 90.2669 67.8535 88.248C67.7461 83.2879 67.6449 78.3276 67.5468 73.3672C64.5768 73.0372 61.6068 72.7072 58.5468 72.3672C60.0318 71.8722 60.0318 71.8722 61.5468 71.3672C61.5468 70.7072 61.5468 70.0472 61.5468 69.3672C60.8868 69.0372 60.2268 68.7072 59.5468 68.3672C60.6812 68.2228 61.8156 68.0784 62.9843 67.9297C66.3546 67.7555 66.3546 67.7555 67.5468 66.3672C67.6945 63.7146 67.7818 61.0846 67.8281 58.4297C67.8465 57.6344 67.8649 56.8391 67.8839 56.0198C67.9428 53.469 67.9955 50.9181 68.0468 48.3672C68.1143 45.0129 68.1879 41.6588 68.2656 38.3047C68.2791 37.5255 68.2927 36.7464 68.3067 35.9436C68.434 30.48 68.434 30.48 69.5468 29.3672Z" fill="white"/>
<path d="M0.546781 89.3672C0.876781 89.3672 1.20678 89.3672 1.54678 89.3672C1.54678 92.3372 1.54678 95.3072 1.54678 98.3672C2.86678 98.0372 4.18678 97.7072 5.54678 97.3672C5.54678 95.3872 5.54678 93.4072 5.54678 91.3672C5.87678 91.3672 6.20678 91.3672 6.54678 91.3672C6.63315 92.1754 6.71952 92.9837 6.8085 93.8164C7.67859 100.434 8.31904 103.904 13.5468 108.367C14.7775 110.654 15.6369 112.925 16.5468 115.367C12.1944 115.056 9.20009 114.058 5.93741 111.07C0.737099 104.701 -0.0607107 97.2983 0.546781 89.3672Z" fill="white"/>
<path d="M10.5468 31.3672C11.9229 34.1194 11.3667 35.4294 10.5468 38.3672C10.0518 39.0891 9.55683 39.8109 9.04683 40.5547C6.8593 44.6563 6.8051 48.7807 6.54683 53.3672C5.55683 53.6972 4.56683 54.0272 3.54683 54.3672C3.21683 55.0272 2.88683 55.6872 2.54683 56.3672C1.88683 56.3672 1.22683 56.3672 0.546826 56.3672C0.0985958 48.8967 -0.147384 42.5266 4.54683 36.3672C6.45612 34.4625 8.35426 32.9618 10.5468 31.3672Z" fill="white"/>
<path d="M84.5468 53.3672C86.4218 53.3672 86.4218 53.3672 88.5468 54.3672C88.9387 55.5016 89.3306 56.6359 89.7343 57.8047C91.1103 61.4639 91.1103 61.4639 93.7343 62.2734C96.0068 62.7563 98.2365 63.1299 100.547 63.3672C99.8868 65.0172 99.2268 66.6672 98.5468 68.3672C99.8668 68.6972 101.187 69.0272 102.547 69.3672C95.9326 69.9071 91.9412 69.359 86.5468 65.3672C83.5781 61.7281 83.1245 59.0131 83.5468 54.3672C83.8768 54.0372 84.2068 53.7072 84.5468 53.3672Z" fill="white"/>
<path d="M70.5468 28.3669C75.005 28.2802 79.463 28.2266 83.9218 28.1794C85.1928 28.1543 86.4638 28.1292 87.7734 28.1033C88.9851 28.0936 90.1968 28.0839 91.4453 28.074C92.5659 28.0583 93.6866 28.0426 94.8412 28.0264C95.7341 28.1388 96.6269 28.2511 97.5468 28.3669C98.2068 29.3569 98.8668 30.3469 99.5468 31.3669C97.8505 33.471 96.997 34.2994 94.2785 34.7075C93.4144 34.6918 92.5504 34.6761 91.6601 34.6599C90.7223 34.6502 89.7845 34.6406 88.8183 34.6306C87.8418 34.6055 86.8654 34.5803 85.8593 34.5544C84.8712 34.5409 83.8832 34.5274 82.8652 34.5134C80.4252 34.4781 77.9863 34.4287 75.5468 34.3669C75.5468 34.0369 75.5468 33.7069 75.5468 33.3669C76.3512 33.2432 77.1556 33.1194 77.9843 32.9919C78.8299 32.7857 79.6756 32.5794 80.5468 32.3669C80.8768 31.7069 81.2068 31.0469 81.5468 30.3669C77.9168 30.0369 74.2868 29.7069 70.5468 29.3669C70.5468 29.0369 70.5468 28.7069 70.5468 28.3669Z" fill="white"/>
<path d="M98.5468 111.367C98.2168 112.687 97.8868 114.007 97.5468 115.367C98.2068 115.697 98.8668 116.027 99.5468 116.367C96.3177 116.396 93.0886 116.414 89.8593 116.429C88.4913 116.442 88.4913 116.442 87.0956 116.455C86.2094 116.458 85.3232 116.461 84.4101 116.464C83.5984 116.47 82.7867 116.475 81.9504 116.48C79.3982 116.36 77.0366 115.927 74.5468 115.367C74.5468 114.377 74.5468 113.387 74.5468 112.367C79.0892 111.297 83.5918 111.01 88.2343 110.742C89.0058 110.69 89.7773 110.639 90.5722 110.586C96.3036 110.245 96.3036 110.245 98.5468 111.367Z" fill="white"/>
<path d="M28.5468 53.3672C29.8668 53.6972 31.1868 54.0272 32.5468 54.3672C32.1767 60.5358 30.7891 63.1249 26.5468 67.3672C23.4669 69.4205 22.4484 69.3672 18.5468 69.3672C18.8768 67.7172 19.2068 66.0672 19.5468 64.3672C18.2268 64.0372 16.9068 63.7072 15.5468 63.3672C16.7637 63.2022 17.9806 63.0372 19.2343 62.8672C22.0632 62.1939 23.2759 61.6825 25.1913 59.4531C26.4127 57.461 27.5295 55.4702 28.5468 53.3672Z" fill="white"/>
<path d="M91.5468 76.3672C95.2343 77.2422 95.2343 77.2422 98.5468 78.3672C98.2168 79.0272 97.8868 79.6872 97.5468 80.3672C96.5568 80.3672 95.5668 80.3672 94.5468 80.3672C94.5468 81.0272 94.5468 81.6872 94.5468 82.3672C92.8802 84.0339 91.2135 85.7005 89.5468 87.3672C88.2516 89.5334 88.2516 89.5334 87.5468 91.3672C86.2268 91.3672 84.9068 91.3672 83.5468 91.3672C82.9494 85.393 82.9494 85.393 84.5546 82.6367C86.6694 80.0724 88.7799 78.2118 91.5468 76.3672Z" fill="white"/>
<path d="M23.8593 76.9296C27.4417 78.8458 29.2418 81.0376 31.5468 84.3671C32.3593 87.7421 32.3593 87.7421 32.5468 90.3671C30.8968 90.6971 29.2468 91.0271 27.5468 91.3671C24.5468 85.6171 24.5468 85.6171 24.5468 83.3671C23.2268 83.0371 21.9068 82.7071 20.5468 82.3671C20.2168 80.7171 19.8868 79.0671 19.5468 77.3671C21.5468 76.3671 21.5468 76.3671 23.8593 76.9296Z" fill="white"/>
<path d="M110.547 100.367C110.877 100.367 111.207 100.367 111.547 100.367C112.373 107.214 112.373 107.214 110.234 110.199C106.198 113.902 102.98 115.145 97.5468 115.367C97.6718 113.117 97.6718 113.117 98.5468 110.367C101.297 108.367 101.297 108.367 104.547 106.367C106.251 104.739 107.927 103.079 109.547 101.367C109.877 101.037 110.207 100.707 110.547 100.367Z" fill="white"/>
<path d="M68.9843 17.2422C70.7149 17.2383 70.7149 17.2383 72.4804 17.2344C75.5468 17.3672 75.5468 17.3672 78.5468 18.3672C78.8768 19.3572 79.2068 20.3472 79.5468 21.3672C78.7618 21.3929 77.9767 21.4187 77.1679 21.4453C70.4896 21.8058 66.0402 22.4968 60.5468 26.3672C60.5468 23.7272 60.5468 21.0872 60.5468 18.3672C63.3844 16.9484 65.8236 17.2351 68.9843 17.2422Z" fill="white"/>
<path d="M110.547 83.3672C113.264 85.9661 114.472 87.3298 114.75 91.1953C114.904 102.471 114.904 102.471 111.547 107.367C110.547 105.367 110.547 105.367 110.547 101.367C109.887 101.697 109.227 102.027 108.547 102.367C108.877 98.4072 109.207 94.4472 109.547 90.3672C109.877 90.3672 110.207 90.3672 110.547 90.3672C110.547 88.0572 110.547 85.7472 110.547 83.3672Z" fill="white"/>
<path d="M19.6718 29.3043C20.7675 29.3134 21.8632 29.3224 22.9921 29.3317C23.8352 29.3433 24.6782 29.3549 25.5468 29.3668C25.2168 30.6868 24.8868 32.0068 24.5468 33.3668C22.7773 33.8715 21.0062 34.3704 19.2343 34.8668C17.7551 35.2845 17.7551 35.2845 16.246 35.7106C13.5468 36.3668 13.5468 36.3668 10.5468 36.3668C10.9218 33.4293 10.9218 33.4293 11.5468 30.3668C14.3113 28.9846 16.593 29.2716 19.6718 29.3043Z" fill="white"/>
<path d="M35.8151 0.0263672C36.6792 0.0420776 37.5433 0.0577881 38.4335 0.0739746C39.8402 0.0884766 39.8402 0.0884766 41.2753 0.103271C42.2518 0.128408 43.2283 0.153545 44.2343 0.179443C45.2224 0.192979 46.2104 0.206514 47.2285 0.220459C49.6685 0.255821 52.1074 0.305173 54.5468 0.366943C54.8768 1.35694 55.2068 2.34694 55.5468 3.36694C47.2968 3.36694 39.0468 3.36694 30.5468 3.36694C33.5468 0.366943 33.5468 0.366943 35.8151 0.0263672Z" fill="white"/>
<path d="M8.54681 17.3676C21.2165 16.8141 21.2165 16.8141 26.5468 20.3676C26.5468 20.6976 26.5468 21.0276 26.5468 21.3676C19.9468 21.3676 13.3468 21.3676 6.54681 21.3676C7.20681 20.0476 7.86681 18.7276 8.54681 17.3676Z" fill="white"/>
<path d="M95.5468 29.3672C101.54 29.7805 104.797 30.6862 109.547 34.3672C108.557 35.6872 107.567 37.0072 106.547 38.3672C103.213 37.0339 99.8801 35.7005 96.5468 34.3672C97.2068 34.0372 97.8668 33.7072 98.5468 33.3672C98.5468 32.7072 98.5468 32.0472 98.5468 31.3672C97.5568 30.7072 96.5668 30.0472 95.5468 29.3672Z" fill="white"/>
<path d="M93.5468 17.3672C97.8368 17.3672 102.127 17.3672 106.547 17.3672C107.207 18.6872 107.867 20.0072 108.547 21.3672C102.607 21.3672 96.6668 21.3672 90.5468 21.3672C91.5368 20.7072 92.5268 20.0472 93.5468 19.3672C93.5468 18.7072 93.5468 18.0472 93.5468 17.3672Z" fill="white"/>
<path d="M55.5468 8.36719C60.1668 8.36719 64.7868 8.36719 69.5468 8.36719C69.8768 9.68719 70.2068 11.0072 70.5468 12.3672C65.5968 12.3672 60.6468 12.3672 55.5468 12.3672C55.5468 11.0472 55.5468 9.72719 55.5468 8.36719Z" fill="white"/>
<path d="M14.5468 109.367C20.4868 110.357 20.4868 110.357 26.5468 111.367C25.5568 111.862 25.5568 111.862 24.5468 112.367C24.5468 113.357 24.5468 114.347 24.5468 115.367C25.8668 115.697 27.1868 116.027 28.5468 116.367C24.2568 116.367 19.9668 116.367 15.5468 116.367C15.2168 114.057 14.8868 111.747 14.5468 109.367Z" fill="white"/>
<path d="M16.6718 76.3051C17.5819 76.3141 18.492 76.3231 19.4296 76.3324C20.1283 76.344 20.827 76.3556 21.5468 76.3676C20.5568 76.8626 20.5568 76.8626 19.5468 77.3676C19.8768 78.6876 20.2068 80.0076 20.5468 81.3676C16.9168 81.6976 13.2868 82.0276 9.54681 82.3676C9.54681 80.7176 9.54681 79.0676 9.54681 77.3676C12.0716 76.1052 13.8588 76.269 16.6718 76.3051Z" fill="white"/>
<path d="M93.5468 76.3672C94.9842 76.3401 96.4218 76.3207 97.8593 76.3047C99.0601 76.2873 99.0601 76.2873 100.285 76.2695C102.547 76.3672 102.547 76.3672 105.547 77.3672C105.547 79.6772 105.547 81.9872 105.547 84.3672C105.031 84.0578 104.516 83.7484 103.984 83.4297C100.88 82.0766 97.8957 81.7536 94.5468 81.3672C95.5368 80.3772 96.5268 79.3872 97.5468 78.3672C96.2268 77.7072 94.9068 77.0472 93.5468 76.3672Z" fill="white"/>
<path d="M87.8593 111.305C88.5999 111.309 89.3404 111.314 90.1035 111.319C91.9179 111.33 93.7324 111.348 95.5468 111.367C95.5468 111.697 95.5468 112.027 95.5468 112.367C90.5968 112.367 85.6468 112.367 80.5468 112.367C80.5468 113.357 80.5468 114.347 80.5468 115.367C84.8368 115.367 89.1268 115.367 93.5468 115.367C93.5468 115.697 93.5468 116.027 93.5468 116.367C91.3177 116.395 89.0885 116.414 86.8593 116.43C85.6179 116.442 84.3766 116.453 83.0976 116.465C80.0845 116.382 77.4641 116.076 74.5468 115.367C74.5468 114.377 74.5468 113.387 74.5468 112.367C78.9847 111.256 83.3164 111.252 87.8593 111.305Z" fill="white"/>
<path d="M10.5468 61.3672C13.5168 62.3572 16.4868 63.3472 19.5468 64.3672C19.2168 66.0172 18.8868 67.6672 18.5468 69.3672C15.9068 69.0372 13.2668 68.7072 10.5468 68.3672C9.42181 63.6172 9.42181 63.6172 10.5468 61.3672Z" fill="white"/>
<path d="M20.5468 8.36719C24.1768 8.36719 27.8068 8.36719 31.5468 8.36719C31.5468 9.68719 31.5468 11.0072 31.5468 12.3672C27.2568 12.3672 22.9668 12.3672 18.5468 12.3672C19.2068 11.0472 19.8668 9.72719 20.5468 8.36719Z" fill="white"/>
<path d="M28.5468 53.3672C29.8668 53.6972 31.1868 54.0272 32.5468 54.3672C31.9314 60.8903 31.9314 60.8903 29.9843 63.3047C29.5099 63.6553 29.0356 64.0059 28.5468 64.3672C28.4231 63.5628 28.2993 62.7584 28.1718 61.9297C27.8624 60.6612 27.8624 60.6612 27.5468 59.3672C26.8868 59.0372 26.2268 58.7072 25.5468 58.3672C26.5368 56.7172 27.5268 55.0672 28.5468 53.3672Z" fill="white"/>
<path d="M48.5468 68.3672C50.3384 68.3402 52.1301 68.3208 53.9218 68.3047C54.9195 68.2931 55.9173 68.2815 56.9453 68.2695C59.5468 68.3672 59.5468 68.3672 61.5468 69.3672C61.5468 70.0272 61.5468 70.6872 61.5468 71.3672C58.5319 72.3722 56.505 72.4705 53.3593 72.4297C52.0077 72.4162 52.0077 72.4162 50.6288 72.4023C49.9418 72.3907 49.2547 72.3791 48.5468 72.3672C48.5468 71.0472 48.5468 69.7272 48.5468 68.3672Z" fill="white"/>
<path d="M110.547 35.3672C112.297 37.4922 112.297 37.4922 113.547 40.3672C112.734 43.6797 112.734 43.6797 111.547 46.3672C110.557 46.0372 109.567 45.7072 108.547 45.3672C106.859 41.8047 106.859 41.8047 105.547 38.3672C108.297 35.3672 108.297 35.3672 110.547 35.3672Z" fill="white"/>
<path d="M27.5468 82.3672C28.5368 82.3672 29.5268 82.3672 30.5468 82.3672C32.1663 84.9393 32.5909 86.0439 32.1718 89.1172C31.9656 89.8597 31.7593 90.6022 31.5468 91.3672C29.8968 91.0372 28.2468 90.7072 26.5468 90.3672C26.2168 88.7172 25.8868 87.0672 25.5468 85.3672C26.2068 85.3672 26.8668 85.3672 27.5468 85.3672C27.5468 84.3772 27.5468 83.3872 27.5468 82.3672Z" fill="white"/>
<path d="M67.5468 66.3672C69.6988 69.5951 69.7477 70.6512 69.5468 74.3672C68.8868 74.0372 68.2268 73.7072 67.5468 73.3672C66.0101 73.1425 64.4671 72.9592 62.9218 72.8047C62.1045 72.7209 61.2873 72.6371 60.4453 72.5508C59.8188 72.4902 59.1923 72.4296 58.5468 72.3672C59.5368 72.0372 60.5268 71.7072 61.5468 71.3672C61.5468 70.7072 61.5468 70.0472 61.5468 69.3672C60.8868 69.0372 60.2268 68.7072 59.5468 68.3672C60.6812 68.2228 61.8156 68.0784 62.9843 67.9297C66.3546 67.7555 66.3546 67.7555 67.5468 66.3672Z" fill="white"/>
<path d="M86.5468 8.36719C89.1868 8.36719 91.8268 8.36719 94.5468 8.36719C95.2068 9.68719 95.8668 11.0072 96.5468 12.3672C92.5868 12.3672 88.6268 12.3672 84.5468 12.3672C85.2068 11.0472 85.8668 9.72719 86.5468 8.36719Z" fill="white"/>
<path d="M54.5468 0.367188C58.8368 0.367188 63.1268 0.367188 67.5468 0.367188C67.2168 1.35719 66.8868 2.34719 66.5468 3.36719C62.9168 3.36719 59.2868 3.36719 55.5468 3.36719C55.2168 2.37719 54.8868 1.38719 54.5468 0.367188Z" fill="white"/>
<path d="M10.5468 108.367C12.4218 108.492 12.4218 108.492 14.5468 109.367C15.7968 112.43 15.7968 112.43 16.5468 115.367C13.6093 114.992 13.6093 114.992 10.5468 114.367C9.30136 111.876 9.77007 110.956 10.5468 108.367Z" fill="white"/>
<path d="M2.54681 88.3672C2.87681 89.3572 3.20681 90.3472 3.54681 91.3672C4.20681 91.3672 4.86681 91.3672 5.54681 91.3672C5.54681 93.3472 5.54681 95.3272 5.54681 97.3672C4.22681 97.6972 2.90681 98.0272 1.54681 98.3672C1.51992 96.8881 1.50047 95.4089 1.48431 93.9297C1.47271 93.106 1.46111 92.2823 1.44916 91.4336C1.54681 89.3672 1.54681 89.3672 2.54681 88.3672Z" fill="white"/>
<path d="M20.5468 17.3672C21.9834 17.2859 23.4213 17.2279 24.8593 17.1797C26.0601 17.1275 26.0601 17.1275 27.2851 17.0742C30.0361 17.4306 30.8691 18.2116 32.5468 20.3672C32.5468 20.6972 32.5468 21.0272 32.5468 21.3672C30.9208 21.2802 29.2959 21.172 27.6718 21.0547C26.7669 20.9967 25.862 20.9387 24.9296 20.8789C22.5468 20.3672 22.5468 20.3672 20.5468 17.3672Z" fill="white"/>
<path d="M82.5468 30.3668C82.2168 31.3568 81.8868 32.3468 81.5468 33.3668C79.6992 34.0972 79.6992 34.0972 77.4843 34.5543C76.7508 34.7128 76.0174 34.8714 75.2617 35.0347C74.4128 35.1991 74.4128 35.1991 73.5468 35.3668C73.2168 34.7068 72.8868 34.0468 72.5468 33.3668C73.2068 33.3668 73.8668 33.3668 74.5468 33.3668C74.5468 32.3768 74.5468 31.3868 74.5468 30.3668C77.5995 29.3856 79.4942 29.3856 82.5468 30.3668Z" fill="white"/>
<path d="M35.5898 0.0742188C37.5755 0.171875 39.5611 0.269531 41.5468 0.367188C41.5468 1.35719 41.5468 2.34719 41.5468 3.36719C37.9168 3.36719 34.2868 3.36719 30.5468 3.36719C33.5468 0.367188 33.5468 0.367188 35.5898 0.0742188Z" fill="white"/>
<path d="M26.5468 112.367C25.8868 112.367 25.2268 112.367 24.5468 112.367C24.5468 113.357 24.5468 114.347 24.5468 115.367C25.8668 115.697 27.1868 116.027 28.5468 116.367C25.2468 116.037 21.9468 115.707 18.5468 115.367C18.8768 114.377 19.2068 113.387 19.5468 112.367C22.4907 111.19 23.4464 111.334 26.5468 112.367Z" fill="white"/>
<path d="M21.5468 76.3672C22.5368 76.6972 23.5268 77.0272 24.5468 77.3672C24.5468 79.0172 24.5468 80.6672 24.5468 82.3672C23.2268 82.3672 21.9068 82.3672 20.5468 82.3672C20.2168 80.7172 19.8868 79.0672 19.5468 77.3672C20.2068 77.0372 20.8668 76.7072 21.5468 76.3672Z" fill="white"/>
<path d="M54.5468 17.3676C52.3593 19.9301 52.3593 19.9301 49.5468 22.3676C46.7343 22.1801 46.7343 22.1801 44.5468 21.3676C45.2068 21.0376 45.8668 20.7076 46.5468 20.3676C46.5468 19.7076 46.5468 19.0476 46.5468 18.3676C49.2556 17.0132 51.5561 17.3026 54.5468 17.3676Z" fill="white"/>
<path d="M55.5468 8.36719C57.5268 8.36719 59.5068 8.36719 61.5468 8.36719C61.2168 9.68719 60.8868 11.0072 60.5468 12.3672C58.8968 12.3672 57.2468 12.3672 55.5468 12.3672C55.5468 11.0472 55.5468 9.72719 55.5468 8.36719Z" fill="white"/>
<path d="M77.5468 0.367188C81.2343 0.679688 81.2343 0.679688 84.5468 1.36719C84.5468 2.02719 84.5468 2.68719 84.5468 3.36719C81.2468 3.36719 77.9468 3.36719 74.5468 3.36719C75.5368 2.37719 76.5268 1.38719 77.5468 0.367188Z" fill="white"/>
<path d="M20.5468 8.36719C21.8668 8.36719 23.1868 8.36719 24.5468 8.36719C24.8768 9.68719 25.2068 11.0072 25.5468 12.3672C23.2368 12.3672 20.9268 12.3672 18.5468 12.3672C19.2068 11.0472 19.8668 9.72719 20.5468 8.36719Z" fill="white"/>
<path d="M20.5468 29.3672C22.1968 29.3672 23.8468 29.3672 25.5468 29.3672C25.2168 30.6872 24.8868 32.0072 24.5468 33.3672C22.8968 33.6972 21.2468 34.0272 19.5468 34.3672C19.8768 32.7172 20.2068 31.0672 20.5468 29.3672Z" fill="white"/>
<path d="M72.5468 17.3672C75.5168 17.8622 75.5168 17.8622 78.5468 18.3672C78.8768 19.3572 79.2068 20.3472 79.5468 21.3672C77.2368 21.3672 74.9268 21.3672 72.5468 21.3672C72.5468 20.0472 72.5468 18.7272 72.5468 17.3672Z" fill="white"/>
<path d="M81.5468 17.3672C85.5068 17.3672 89.4668 17.3672 93.5468 17.3672C92.2268 17.6972 90.9068 18.0272 89.5468 18.3672C89.5468 19.0272 89.5468 19.6872 89.5468 20.3672C87.2343 20.5547 87.2343 20.5547 84.5468 20.3672C83.5568 19.3772 82.5668 18.3872 81.5468 17.3672Z" fill="white"/>
<path d="M21.5468 77.3669C20.8868 77.3669 20.2268 77.3669 19.5468 77.3669C19.8768 78.6869 20.2068 80.0069 20.5468 81.3669C18.8968 81.0369 17.2468 80.7069 15.5468 80.3669C15.5468 79.3769 15.5468 78.3869 15.5468 77.3669C18.0377 76.1214 18.9576 76.5901 21.5468 77.3669Z" fill="white"/>
<path d="M18.5468 29.3672C19.2068 29.6972 19.8668 30.0272 20.5468 30.3672C20.2168 31.6872 19.8868 33.0072 19.5468 34.3672C18.2268 34.6972 16.9068 35.0272 15.5468 35.3672C15.2168 34.3772 14.8868 33.3872 14.5468 32.3672C15.5468 30.3672 15.5468 30.3672 18.5468 29.3672Z" fill="white"/>
<path d="M63.5468 18.3671C69.0853 17.9978 69.0853 17.9978 71.4218 19.8671C71.7931 20.3621 72.1643 20.8571 72.5468 21.3671C69.9068 21.6971 67.2668 22.0271 64.5468 22.3671C64.2168 21.0471 63.8868 19.7271 63.5468 18.3671Z" fill="white"/>
<path d="M7.54681 18.3672C9.52681 18.3672 11.5068 18.3672 13.5468 18.3672C13.5468 19.3572 13.5468 20.3472 13.5468 21.3672C11.2368 21.3672 8.92681 21.3672 6.54681 21.3672C6.87681 20.3772 7.20681 19.3872 7.54681 18.3672Z" fill="white"/>
<path d="M55.5468 68.3672C58.5168 68.8622 58.5168 68.8622 61.5468 69.3672C61.5468 70.0272 61.5468 70.6872 61.5468 71.3672C58.0736 72.5249 55.1861 72.4359 51.5468 72.3672C51.5468 72.0372 51.5468 71.7072 51.5468 71.3672C53.5268 71.3672 55.5068 71.3672 57.5468 71.3672C57.5468 70.7072 57.5468 70.0472 57.5468 69.3672C56.8868 69.0372 56.2268 68.7072 55.5468 68.3672Z" fill="white"/>
<path d="M26.5468 60.3672C27.2068 61.3572 27.8668 62.3472 28.5468 63.3672C27.8868 64.6872 27.2268 66.0072 26.5468 67.3672C25.8868 67.0372 25.2268 66.7072 24.5468 66.3672C25.4218 61.4922 25.4218 61.4922 26.5468 60.3672Z" fill="white"/>
</svg>
